<svg xmlns="http://www.w3.org/2000/svg" width="664" height="744" viewBox="0 0 664 744">
<rect width="100%" height="100%" fill="#fff"/>
<text x="24" y="46" font-family="Helvetica, Arial, sans-serif" font-size="24" font-weight="bold" fill="#111">Twin Peaks</text>
<text x="24" y="66" font-family="Helvetica, Arial, sans-serif" font-size="12" fill="#555">Solution</text>
<rect x="80" y="76" width="28" height="28" fill="#fff" stroke="#222" stroke-width="1.2"/>
<text x="82.5" y="85" font-family="Helvetica, Arial, sans-serif" font-size="8" fill="#333">1</text>
<text x="94" y="98" font-family="Helvetica, Arial, sans-serif" font-size="16" text-anchor="middle" fill="#111">J</text>
<rect x="80" y="104" width="28" height="28" fill="#fff" stroke="#222" stroke-width="1.2"/>
<text x="94" y="126" font-family="Helvetica, Arial, sans-serif" font-size="16" text-anchor="middle" fill="#111">O</text>
<rect x="276" y="104" width="28" height="28" fill="#fff" stroke="#222" stroke-width="1.2"/>
<text x="278.5" y="113" font-family="Helvetica, Arial, sans-serif" font-size="8" fill="#333">2</text>
<text x="290" y="126" font-family="Helvetica, Arial, sans-serif" font-size="16" text-anchor="middle" fill="#111">A</text>
<rect x="304" y="104" width="28" height="28" fill="#fff" stroke="#222" stroke-width="1.2"/>
<text x="318" y="126" font-family="Helvetica, Arial, sans-serif" font-size="16" text-anchor="middle" fill="#111">L</text>
<rect x="332" y="104" width="28" height="28" fill="#fff" stroke="#222" stroke-width="1.2"/>
<text x="334.5" y="113" font-family="Helvetica, Arial, sans-serif" font-size="8" fill="#333">3</text>
<text x="346" y="126" font-family="Helvetica, Arial, sans-serif" font-size="16" text-anchor="middle" fill="#111">B</text>
<rect x="360" y="104" width="28" height="28" fill="#fff" stroke="#222" stroke-width="1.2"/>
<text x="374" y="126" font-family="Helvetica, Arial, sans-serif" font-size="16" text-anchor="middle" fill="#111">E</text>
<rect x="388" y="104" width="28" height="28" fill="#fff" stroke="#222" stroke-width="1.2"/>
<text x="402" y="126" font-family="Helvetica, Arial, sans-serif" font-size="16" text-anchor="middle" fill="#111">R</text>
<rect x="416" y="104" width="28" height="28" fill="#fff" stroke="#222" stroke-width="1.2"/>
<text x="430" y="126" font-family="Helvetica, Arial, sans-serif" font-size="16" text-anchor="middle" fill="#111">T</text>
<rect x="528" y="104" width="28" height="28" fill="#fff" stroke="#222" stroke-width="1.2"/>
<text x="530.5" y="113" font-family="Helvetica, Arial, sans-serif" font-size="8" fill="#333">4</text>
<text x="542" y="126" font-family="Helvetica, Arial, sans-serif" font-size="16" text-anchor="middle" fill="#111">P</text>
<rect x="80" y="132" width="28" height="28" fill="#fff" stroke="#222" stroke-width="1.2"/>
<text x="94" y="154" font-family="Helvetica, Arial, sans-serif" font-size="16" text-anchor="middle" fill="#111">S</text>
<rect x="332" y="132" width="28" height="28" fill="#fff" stroke="#222" stroke-width="1.2"/>
<text x="346" y="154" font-family="Helvetica, Arial, sans-serif" font-size="16" text-anchor="middle" fill="#111">O</text>
<rect x="528" y="132" width="28" height="28" fill="#fff" stroke="#222" stroke-width="1.2"/>
<text x="542" y="154" font-family="Helvetica, Arial, sans-serif" font-size="16" text-anchor="middle" fill="#111">E</text>
<rect x="52" y="160" width="28" height="28" fill="#fff" stroke="#222" stroke-width="1.2"/>
<text x="54.5" y="169" font-family="Helvetica, Arial, sans-serif" font-size="8" fill="#333">5</text>
<text x="66" y="182" font-family="Helvetica, Arial, sans-serif" font-size="16" text-anchor="middle" fill="#111">G</text>
<rect x="80" y="160" width="28" height="28" fill="#fff" stroke="#222" stroke-width="1.2"/>
<text x="94" y="182" font-family="Helvetica, Arial, sans-serif" font-size="16" text-anchor="middle" fill="#111">I</text>
<rect x="108" y="160" width="28" height="28" fill="#fff" stroke="#222" stroke-width="1.2"/>
<text x="122" y="182" font-family="Helvetica, Arial, sans-serif" font-size="16" text-anchor="middle" fill="#111">A</text>
<rect x="136" y="160" width="28" height="28" fill="#fff" stroke="#222" stroke-width="1.2"/>
<text x="138.5" y="169" font-family="Helvetica, Arial, sans-serif" font-size="8" fill="#333">6</text>
<text x="150" y="182" font-family="Helvetica, Arial, sans-serif" font-size="16" text-anchor="middle" fill="#111">N</text>
<rect x="164" y="160" width="28" height="28" fill="#fff" stroke="#222" stroke-width="1.2"/>
<text x="178" y="182" font-family="Helvetica, Arial, sans-serif" font-size="16" text-anchor="middle" fill="#111">T</text>
<rect x="276" y="160" width="28" height="28" fill="#fff" stroke="#222" stroke-width="1.2"/>
<text x="278.5" y="169" font-family="Helvetica, Arial, sans-serif" font-size="8" fill="#333">7</text>
<text x="290" y="182" font-family="Helvetica, Arial, sans-serif" font-size="16" text-anchor="middle" fill="#111">B</text>
<rect x="304" y="160" width="28" height="28" fill="#fff" stroke="#222" stroke-width="1.2"/>
<text x="318" y="182" font-family="Helvetica, Arial, sans-serif" font-size="16" text-anchor="middle" fill="#111">O</text>
<rect x="332" y="160" width="28" height="28" fill="#fff" stroke="#222" stroke-width="1.2"/>
<text x="346" y="182" font-family="Helvetica, Arial, sans-serif" font-size="16" text-anchor="middle" fill="#111">B</text>
<rect x="528" y="160" width="28" height="28" fill="#fff" stroke="#222" stroke-width="1.2"/>
<text x="542" y="182" font-family="Helvetica, Arial, sans-serif" font-size="16" text-anchor="middle" fill="#111">T</text>
<rect x="80" y="188" width="28" height="28" fill="#fff" stroke="#222" stroke-width="1.2"/>
<text x="94" y="210" font-family="Helvetica, Arial, sans-serif" font-size="16" text-anchor="middle" fill="#111">E</text>
<rect x="136" y="188" width="28" height="28" fill="#fff" stroke="#222" stroke-width="1.2"/>
<text x="150" y="210" font-family="Helvetica, Arial, sans-serif" font-size="16" text-anchor="middle" fill="#111">O</text>
<rect x="192" y="188" width="28" height="28" fill="#fff" stroke="#222" stroke-width="1.2"/>
<text x="194.5" y="197" font-family="Helvetica, Arial, sans-serif" font-size="8" fill="#333">8</text>
<text x="206" y="210" font-family="Helvetica, Arial, sans-serif" font-size="16" text-anchor="middle" fill="#111">H</text>
<rect x="332" y="188" width="28" height="28" fill="#fff" stroke="#222" stroke-width="1.2"/>
<text x="334.5" y="197" font-family="Helvetica, Arial, sans-serif" font-size="8" fill="#333">9</text>
<text x="346" y="210" font-family="Helvetica, Arial, sans-serif" font-size="16" text-anchor="middle" fill="#111">B</text>
<rect x="360" y="188" width="28" height="28" fill="#fff" stroke="#222" stroke-width="1.2"/>
<text x="374" y="210" font-family="Helvetica, Arial, sans-serif" font-size="16" text-anchor="middle" fill="#111">L</text>
<rect x="388" y="188" width="28" height="28" fill="#fff" stroke="#222" stroke-width="1.2"/>
<text x="402" y="210" font-family="Helvetica, Arial, sans-serif" font-size="16" text-anchor="middle" fill="#111">U</text>
<rect x="416" y="188" width="28" height="28" fill="#fff" stroke="#222" stroke-width="1.2"/>
<text x="430" y="210" font-family="Helvetica, Arial, sans-serif" font-size="16" text-anchor="middle" fill="#111">E</text>
<rect x="444" y="188" width="28" height="28" fill="#fff" stroke="#222" stroke-width="1.2"/>
<text x="446.5" y="197" font-family="Helvetica, Arial, sans-serif" font-size="8" fill="#333">10</text>
<text x="458" y="210" font-family="Helvetica, Arial, sans-serif" font-size="16" text-anchor="middle" fill="#111">R</text>
<rect x="472" y="188" width="28" height="28" fill="#fff" stroke="#222" stroke-width="1.2"/>
<text x="486" y="210" font-family="Helvetica, Arial, sans-serif" font-size="16" text-anchor="middle" fill="#111">O</text>
<rect x="500" y="188" width="28" height="28" fill="#fff" stroke="#222" stroke-width="1.2"/>
<text x="514" y="210" font-family="Helvetica, Arial, sans-serif" font-size="16" text-anchor="middle" fill="#111">S</text>
<rect x="528" y="188" width="28" height="28" fill="#fff" stroke="#222" stroke-width="1.2"/>
<text x="542" y="210" font-family="Helvetica, Arial, sans-serif" font-size="16" text-anchor="middle" fill="#111">E</text>
<rect x="612" y="188" width="28" height="28" fill="#fff" stroke="#222" stroke-width="1.2"/>
<text x="614.5" y="197" font-family="Helvetica, Arial, sans-serif" font-size="8" fill="#333">11</text>
<text x="626" y="210" font-family="Helvetica, Arial, sans-serif" font-size="16" text-anchor="middle" fill="#111">D</text>
<rect x="136" y="216" width="28" height="28" fill="#fff" stroke="#222" stroke-width="1.2"/>
<text x="150" y="238" font-family="Helvetica, Arial, sans-serif" font-size="16" text-anchor="middle" fill="#111">R</text>
<rect x="192" y="216" width="28" height="28" fill="#fff" stroke="#222" stroke-width="1.2"/>
<text x="194.5" y="225" font-family="Helvetica, Arial, sans-serif" font-size="8" fill="#333">12</text>
<text x="206" y="238" font-family="Helvetica, Arial, sans-serif" font-size="16" text-anchor="middle" fill="#111">A</text>
<rect x="220" y="216" width="28" height="28" fill="#fff" stroke="#222" stroke-width="1.2"/>
<text x="234" y="238" font-family="Helvetica, Arial, sans-serif" font-size="16" text-anchor="middle" fill="#111">U</text>
<rect x="248" y="216" width="28" height="28" fill="#fff" stroke="#222" stroke-width="1.2"/>
<text x="262" y="238" font-family="Helvetica, Arial, sans-serif" font-size="16" text-anchor="middle" fill="#111">D</text>
<rect x="276" y="216" width="28" height="28" fill="#fff" stroke="#222" stroke-width="1.2"/>
<text x="290" y="238" font-family="Helvetica, Arial, sans-serif" font-size="16" text-anchor="middle" fill="#111">R</text>
<rect x="304" y="216" width="28" height="28" fill="#fff" stroke="#222" stroke-width="1.2"/>
<text x="318" y="238" font-family="Helvetica, Arial, sans-serif" font-size="16" text-anchor="middle" fill="#111">E</text>
<rect x="332" y="216" width="28" height="28" fill="#fff" stroke="#222" stroke-width="1.2"/>
<text x="346" y="238" font-family="Helvetica, Arial, sans-serif" font-size="16" text-anchor="middle" fill="#111">Y</text>
<rect x="444" y="216" width="28" height="28" fill="#fff" stroke="#222" stroke-width="1.2"/>
<text x="458" y="238" font-family="Helvetica, Arial, sans-serif" font-size="16" text-anchor="middle" fill="#111">O</text>
<rect x="612" y="216" width="28" height="28" fill="#fff" stroke="#222" stroke-width="1.2"/>
<text x="626" y="238" font-family="Helvetica, Arial, sans-serif" font-size="16" text-anchor="middle" fill="#111">I</text>
<rect x="136" y="244" width="28" height="28" fill="#fff" stroke="#222" stroke-width="1.2"/>
<text x="150" y="266" font-family="Helvetica, Arial, sans-serif" font-size="16" text-anchor="middle" fill="#111">M</text>
<rect x="192" y="244" width="28" height="28" fill="#fff" stroke="#222" stroke-width="1.2"/>
<text x="206" y="266" font-family="Helvetica, Arial, sans-serif" font-size="16" text-anchor="middle" fill="#111">W</text>
<rect x="416" y="244" width="28" height="28" fill="#fff" stroke="#222" stroke-width="1.2"/>
<text x="418.5" y="253" font-family="Helvetica, Arial, sans-serif" font-size="8" fill="#333">13</text>
<text x="430" y="266" font-family="Helvetica, Arial, sans-serif" font-size="16" text-anchor="middle" fill="#111">A</text>
<rect x="444" y="244" width="28" height="28" fill="#fff" stroke="#222" stroke-width="1.2"/>
<text x="458" y="266" font-family="Helvetica, Arial, sans-serif" font-size="16" text-anchor="middle" fill="#111">N</text>
<rect x="472" y="244" width="28" height="28" fill="#fff" stroke="#222" stroke-width="1.2"/>
<text x="486" y="266" font-family="Helvetica, Arial, sans-serif" font-size="16" text-anchor="middle" fill="#111">D</text>
<rect x="500" y="244" width="28" height="28" fill="#fff" stroke="#222" stroke-width="1.2"/>
<text x="514" y="266" font-family="Helvetica, Arial, sans-serif" font-size="16" text-anchor="middle" fill="#111">Y</text>
<rect x="612" y="244" width="28" height="28" fill="#fff" stroke="#222" stroke-width="1.2"/>
<text x="626" y="266" font-family="Helvetica, Arial, sans-serif" font-size="16" text-anchor="middle" fill="#111">A</text>
<rect x="80" y="272" width="28" height="28" fill="#fff" stroke="#222" stroke-width="1.2"/>
<text x="82.5" y="281" font-family="Helvetica, Arial, sans-serif" font-size="8" fill="#333">14</text>
<text x="94" y="294" font-family="Helvetica, Arial, sans-serif" font-size="16" text-anchor="middle" fill="#111">B</text>
<rect x="108" y="272" width="28" height="28" fill="#fff" stroke="#222" stroke-width="1.2"/>
<text x="110.5" y="281" font-family="Helvetica, Arial, sans-serif" font-size="8" fill="#333">15</text>
<text x="122" y="294" font-family="Helvetica, Arial, sans-serif" font-size="16" text-anchor="middle" fill="#111">L</text>
<rect x="136" y="272" width="28" height="28" fill="#fff" stroke="#222" stroke-width="1.2"/>
<text x="150" y="294" font-family="Helvetica, Arial, sans-serif" font-size="16" text-anchor="middle" fill="#111">A</text>
<rect x="164" y="272" width="28" height="28" fill="#fff" stroke="#222" stroke-width="1.2"/>
<text x="178" y="294" font-family="Helvetica, Arial, sans-serif" font-size="16" text-anchor="middle" fill="#111">C</text>
<rect x="192" y="272" width="28" height="28" fill="#fff" stroke="#222" stroke-width="1.2"/>
<text x="206" y="294" font-family="Helvetica, Arial, sans-serif" font-size="16" text-anchor="middle" fill="#111">K</text>
<rect x="220" y="272" width="28" height="28" fill="#fff" stroke="#222" stroke-width="1.2"/>
<text x="234" y="294" font-family="Helvetica, Arial, sans-serif" font-size="16" text-anchor="middle" fill="#111">L</text>
<rect x="248" y="272" width="28" height="28" fill="#fff" stroke="#222" stroke-width="1.2"/>
<text x="262" y="294" font-family="Helvetica, Arial, sans-serif" font-size="16" text-anchor="middle" fill="#111">O</text>
<rect x="276" y="272" width="28" height="28" fill="#fff" stroke="#222" stroke-width="1.2"/>
<text x="290" y="294" font-family="Helvetica, Arial, sans-serif" font-size="16" text-anchor="middle" fill="#111">D</text>
<rect x="304" y="272" width="28" height="28" fill="#fff" stroke="#222" stroke-width="1.2"/>
<text x="306.5" y="281" font-family="Helvetica, Arial, sans-serif" font-size="8" fill="#333">16</text>
<text x="318" y="294" font-family="Helvetica, Arial, sans-serif" font-size="16" text-anchor="middle" fill="#111">G</text>
<rect x="332" y="272" width="28" height="28" fill="#fff" stroke="#222" stroke-width="1.2"/>
<text x="346" y="294" font-family="Helvetica, Arial, sans-serif" font-size="16" text-anchor="middle" fill="#111">E</text>
<rect x="444" y="272" width="28" height="28" fill="#fff" stroke="#222" stroke-width="1.2"/>
<text x="458" y="294" font-family="Helvetica, Arial, sans-serif" font-size="16" text-anchor="middle" fill="#111">E</text>
<rect x="528" y="272" width="28" height="28" fill="#fff" stroke="#222" stroke-width="1.2"/>
<text x="530.5" y="281" font-family="Helvetica, Arial, sans-serif" font-size="8" fill="#333">17</text>
<text x="542" y="294" font-family="Helvetica, Arial, sans-serif" font-size="16" text-anchor="middle" fill="#111">G</text>
<rect x="612" y="272" width="28" height="28" fill="#fff" stroke="#222" stroke-width="1.2"/>
<text x="626" y="294" font-family="Helvetica, Arial, sans-serif" font-size="16" text-anchor="middle" fill="#111">N</text>
<rect x="108" y="300" width="28" height="28" fill="#fff" stroke="#222" stroke-width="1.2"/>
<text x="122" y="322" font-family="Helvetica, Arial, sans-serif" font-size="16" text-anchor="middle" fill="#111">O</text>
<rect x="304" y="300" width="28" height="28" fill="#fff" stroke="#222" stroke-width="1.2"/>
<text x="318" y="322" font-family="Helvetica, Arial, sans-serif" font-size="16" text-anchor="middle" fill="#111">A</text>
<rect x="388" y="300" width="28" height="28" fill="#fff" stroke="#222" stroke-width="1.2"/>
<text x="390.5" y="309" font-family="Helvetica, Arial, sans-serif" font-size="8" fill="#333">18</text>
<text x="402" y="322" font-family="Helvetica, Arial, sans-serif" font-size="16" text-anchor="middle" fill="#111">C</text>
<rect x="416" y="300" width="28" height="28" fill="#fff" stroke="#222" stroke-width="1.2"/>
<text x="430" y="322" font-family="Helvetica, Arial, sans-serif" font-size="16" text-anchor="middle" fill="#111">A</text>
<rect x="444" y="300" width="28" height="28" fill="#fff" stroke="#222" stroke-width="1.2"/>
<text x="458" y="322" font-family="Helvetica, Arial, sans-serif" font-size="16" text-anchor="middle" fill="#111">T</text>
<rect x="472" y="300" width="28" height="28" fill="#fff" stroke="#222" stroke-width="1.2"/>
<text x="486" y="322" font-family="Helvetica, Arial, sans-serif" font-size="16" text-anchor="middle" fill="#111">H</text>
<rect x="500" y="300" width="28" height="28" fill="#fff" stroke="#222" stroke-width="1.2"/>
<text x="514" y="322" font-family="Helvetica, Arial, sans-serif" font-size="16" text-anchor="middle" fill="#111">E</text>
<rect x="528" y="300" width="28" height="28" fill="#fff" stroke="#222" stroke-width="1.2"/>
<text x="542" y="322" font-family="Helvetica, Arial, sans-serif" font-size="16" text-anchor="middle" fill="#111">R</text>
<rect x="556" y="300" width="28" height="28" fill="#fff" stroke="#222" stroke-width="1.2"/>
<text x="570" y="322" font-family="Helvetica, Arial, sans-serif" font-size="16" text-anchor="middle" fill="#111">I</text>
<rect x="584" y="300" width="28" height="28" fill="#fff" stroke="#222" stroke-width="1.2"/>
<text x="598" y="322" font-family="Helvetica, Arial, sans-serif" font-size="16" text-anchor="middle" fill="#111">N</text>
<rect x="612" y="300" width="28" height="28" fill="#fff" stroke="#222" stroke-width="1.2"/>
<text x="626" y="322" font-family="Helvetica, Arial, sans-serif" font-size="16" text-anchor="middle" fill="#111">E</text>
<rect x="108" y="328" width="28" height="28" fill="#fff" stroke="#222" stroke-width="1.2"/>
<text x="122" y="350" font-family="Helvetica, Arial, sans-serif" font-size="16" text-anchor="middle" fill="#111">G</text>
<rect x="192" y="328" width="28" height="28" fill="#fff" stroke="#222" stroke-width="1.2"/>
<text x="194.5" y="337" font-family="Helvetica, Arial, sans-serif" font-size="8" fill="#333">19</text>
<text x="206" y="350" font-family="Helvetica, Arial, sans-serif" font-size="16" text-anchor="middle" fill="#111">M</text>
<rect x="304" y="328" width="28" height="28" fill="#fff" stroke="#222" stroke-width="1.2"/>
<text x="318" y="350" font-family="Helvetica, Arial, sans-serif" font-size="16" text-anchor="middle" fill="#111">R</text>
<rect x="444" y="328" width="28" height="28" fill="#fff" stroke="#222" stroke-width="1.2"/>
<text x="458" y="350" font-family="Helvetica, Arial, sans-serif" font-size="16" text-anchor="middle" fill="#111">T</text>
<rect x="528" y="328" width="28" height="28" fill="#fff" stroke="#222" stroke-width="1.2"/>
<text x="542" y="350" font-family="Helvetica, Arial, sans-serif" font-size="16" text-anchor="middle" fill="#111">E</text>
<rect x="108" y="356" width="28" height="28" fill="#fff" stroke="#222" stroke-width="1.2"/>
<text x="122" y="378" font-family="Helvetica, Arial, sans-serif" font-size="16" text-anchor="middle" fill="#111">L</text>
<rect x="164" y="356" width="28" height="28" fill="#fff" stroke="#222" stroke-width="1.2"/>
<text x="166.5" y="365" font-family="Helvetica, Arial, sans-serif" font-size="8" fill="#333">20</text>
<text x="178" y="378" font-family="Helvetica, Arial, sans-serif" font-size="16" text-anchor="middle" fill="#111">W</text>
<rect x="192" y="356" width="28" height="28" fill="#fff" stroke="#222" stroke-width="1.2"/>
<text x="206" y="378" font-family="Helvetica, Arial, sans-serif" font-size="16" text-anchor="middle" fill="#111">I</text>
<rect x="220" y="356" width="28" height="28" fill="#fff" stroke="#222" stroke-width="1.2"/>
<text x="234" y="378" font-family="Helvetica, Arial, sans-serif" font-size="16" text-anchor="middle" fill="#111">N</text>
<rect x="248" y="356" width="28" height="28" fill="#fff" stroke="#222" stroke-width="1.2"/>
<text x="262" y="378" font-family="Helvetica, Arial, sans-serif" font-size="16" text-anchor="middle" fill="#111">D</text>
<rect x="276" y="356" width="28" height="28" fill="#fff" stroke="#222" stroke-width="1.2"/>
<text x="290" y="378" font-family="Helvetica, Arial, sans-serif" font-size="16" text-anchor="middle" fill="#111">O</text>
<rect x="304" y="356" width="28" height="28" fill="#fff" stroke="#222" stroke-width="1.2"/>
<text x="318" y="378" font-family="Helvetica, Arial, sans-serif" font-size="16" text-anchor="middle" fill="#111">M</text>
<rect x="332" y="356" width="28" height="28" fill="#fff" stroke="#222" stroke-width="1.2"/>
<text x="346" y="378" font-family="Helvetica, Arial, sans-serif" font-size="16" text-anchor="middle" fill="#111">E</text>
<rect x="360" y="356" width="28" height="28" fill="#fff" stroke="#222" stroke-width="1.2"/>
<text x="374" y="378" font-family="Helvetica, Arial, sans-serif" font-size="16" text-anchor="middle" fill="#111">A</text>
<rect x="388" y="356" width="28" height="28" fill="#fff" stroke="#222" stroke-width="1.2"/>
<text x="402" y="378" font-family="Helvetica, Arial, sans-serif" font-size="16" text-anchor="middle" fill="#111">R</text>
<rect x="416" y="356" width="28" height="28" fill="#fff" stroke="#222" stroke-width="1.2"/>
<text x="430" y="378" font-family="Helvetica, Arial, sans-serif" font-size="16" text-anchor="middle" fill="#111">L</text>
<rect x="444" y="356" width="28" height="28" fill="#fff" stroke="#222" stroke-width="1.2"/>
<text x="458" y="378" font-family="Helvetica, Arial, sans-serif" font-size="16" text-anchor="middle" fill="#111">E</text>
<rect x="500" y="356" width="28" height="28" fill="#fff" stroke="#222" stroke-width="1.2"/>
<text x="502.5" y="365" font-family="Helvetica, Arial, sans-serif" font-size="8" fill="#333">21</text>
<text x="514" y="378" font-family="Helvetica, Arial, sans-serif" font-size="16" text-anchor="middle" fill="#111">M</text>
<rect x="528" y="356" width="28" height="28" fill="#fff" stroke="#222" stroke-width="1.2"/>
<text x="542" y="378" font-family="Helvetica, Arial, sans-serif" font-size="16" text-anchor="middle" fill="#111">A</text>
<rect x="556" y="356" width="28" height="28" fill="#fff" stroke="#222" stroke-width="1.2"/>
<text x="570" y="378" font-family="Helvetica, Arial, sans-serif" font-size="16" text-anchor="middle" fill="#111">D</text>
<rect x="584" y="356" width="28" height="28" fill="#fff" stroke="#222" stroke-width="1.2"/>
<text x="598" y="378" font-family="Helvetica, Arial, sans-serif" font-size="16" text-anchor="middle" fill="#111">D</text>
<rect x="612" y="356" width="28" height="28" fill="#fff" stroke="#222" stroke-width="1.2"/>
<text x="626" y="378" font-family="Helvetica, Arial, sans-serif" font-size="16" text-anchor="middle" fill="#111">Y</text>
<rect x="52" y="384" width="28" height="28" fill="#fff" stroke="#222" stroke-width="1.2"/>
<text x="54.5" y="393" font-family="Helvetica, Arial, sans-serif" font-size="8" fill="#333">22</text>
<text x="66" y="406" font-family="Helvetica, Arial, sans-serif" font-size="16" text-anchor="middle" fill="#111">L</text>
<rect x="108" y="384" width="28" height="28" fill="#fff" stroke="#222" stroke-width="1.2"/>
<text x="122" y="406" font-family="Helvetica, Arial, sans-serif" font-size="16" text-anchor="middle" fill="#111">A</text>
<rect x="192" y="384" width="28" height="28" fill="#fff" stroke="#222" stroke-width="1.2"/>
<text x="206" y="406" font-family="Helvetica, Arial, sans-serif" font-size="16" text-anchor="middle" fill="#111">K</text>
<rect x="304" y="384" width="28" height="28" fill="#fff" stroke="#222" stroke-width="1.2"/>
<text x="318" y="406" font-family="Helvetica, Arial, sans-serif" font-size="16" text-anchor="middle" fill="#111">O</text>
<rect x="528" y="384" width="28" height="28" fill="#fff" stroke="#222" stroke-width="1.2"/>
<text x="542" y="406" font-family="Helvetica, Arial, sans-serif" font-size="16" text-anchor="middle" fill="#111">T</text>
<rect x="52" y="412" width="28" height="28" fill="#fff" stroke="#222" stroke-width="1.2"/>
<text x="66" y="434" font-family="Helvetica, Arial, sans-serif" font-size="16" text-anchor="middle" fill="#111">A</text>
<rect x="108" y="412" width="28" height="28" fill="#fff" stroke="#222" stroke-width="1.2"/>
<text x="122" y="434" font-family="Helvetica, Arial, sans-serif" font-size="16" text-anchor="middle" fill="#111">D</text>
<rect x="192" y="412" width="28" height="28" fill="#fff" stroke="#222" stroke-width="1.2"/>
<text x="206" y="434" font-family="Helvetica, Arial, sans-serif" font-size="16" text-anchor="middle" fill="#111">E</text>
<rect x="248" y="412" width="28" height="28" fill="#fff" stroke="#222" stroke-width="1.2"/>
<text x="250.5" y="421" font-family="Helvetica, Arial, sans-serif" font-size="8" fill="#333">23</text>
<text x="262" y="434" font-family="Helvetica, Arial, sans-serif" font-size="16" text-anchor="middle" fill="#111">D</text>
<rect x="276" y="412" width="28" height="28" fill="#fff" stroke="#222" stroke-width="1.2"/>
<text x="290" y="434" font-family="Helvetica, Arial, sans-serif" font-size="16" text-anchor="middle" fill="#111">O</text>
<rect x="304" y="412" width="28" height="28" fill="#fff" stroke="#222" stroke-width="1.2"/>
<text x="318" y="434" font-family="Helvetica, Arial, sans-serif" font-size="16" text-anchor="middle" fill="#111">N</text>
<rect x="332" y="412" width="28" height="28" fill="#fff" stroke="#222" stroke-width="1.2"/>
<text x="346" y="434" font-family="Helvetica, Arial, sans-serif" font-size="16" text-anchor="middle" fill="#111">N</text>
<rect x="360" y="412" width="28" height="28" fill="#fff" stroke="#222" stroke-width="1.2"/>
<text x="374" y="434" font-family="Helvetica, Arial, sans-serif" font-size="16" text-anchor="middle" fill="#111">A</text>
<rect x="416" y="412" width="28" height="28" fill="#fff" stroke="#222" stroke-width="1.2"/>
<text x="418.5" y="421" font-family="Helvetica, Arial, sans-serif" font-size="8" fill="#333">24</text>
<text x="430" y="434" font-family="Helvetica, Arial, sans-serif" font-size="16" text-anchor="middle" fill="#111">L</text>
<rect x="444" y="412" width="28" height="28" fill="#fff" stroke="#222" stroke-width="1.2"/>
<text x="458" y="434" font-family="Helvetica, Arial, sans-serif" font-size="16" text-anchor="middle" fill="#111">E</text>
<rect x="472" y="412" width="28" height="28" fill="#fff" stroke="#222" stroke-width="1.2"/>
<text x="486" y="434" font-family="Helvetica, Arial, sans-serif" font-size="16" text-anchor="middle" fill="#111">L</text>
<rect x="500" y="412" width="28" height="28" fill="#fff" stroke="#222" stroke-width="1.2"/>
<text x="514" y="434" font-family="Helvetica, Arial, sans-serif" font-size="16" text-anchor="middle" fill="#111">A</text>
<rect x="528" y="412" width="28" height="28" fill="#fff" stroke="#222" stroke-width="1.2"/>
<text x="542" y="434" font-family="Helvetica, Arial, sans-serif" font-size="16" text-anchor="middle" fill="#111">N</text>
<rect x="556" y="412" width="28" height="28" fill="#fff" stroke="#222" stroke-width="1.2"/>
<text x="570" y="434" font-family="Helvetica, Arial, sans-serif" font-size="16" text-anchor="middle" fill="#111">D</text>
<rect x="24" y="440" width="28" height="28" fill="#fff" stroke="#222" stroke-width="1.2"/>
<text x="26.5" y="449" font-family="Helvetica, Arial, sans-serif" font-size="8" fill="#333">25</text>
<text x="38" y="462" font-family="Helvetica, Arial, sans-serif" font-size="16" text-anchor="middle" fill="#111">L</text>
<rect x="52" y="440" width="28" height="28" fill="#fff" stroke="#222" stroke-width="1.2"/>
<text x="66" y="462" font-family="Helvetica, Arial, sans-serif" font-size="16" text-anchor="middle" fill="#111">U</text>
<rect x="80" y="440" width="28" height="28" fill="#fff" stroke="#222" stroke-width="1.2"/>
<text x="94" y="462" font-family="Helvetica, Arial, sans-serif" font-size="16" text-anchor="middle" fill="#111">C</text>
<rect x="108" y="440" width="28" height="28" fill="#fff" stroke="#222" stroke-width="1.2"/>
<text x="122" y="462" font-family="Helvetica, Arial, sans-serif" font-size="16" text-anchor="middle" fill="#111">Y</text>
<rect x="220" y="440" width="28" height="28" fill="#fff" stroke="#222" stroke-width="1.2"/>
<text x="222.5" y="449" font-family="Helvetica, Arial, sans-serif" font-size="8" fill="#333">26</text>
<text x="234" y="462" font-family="Helvetica, Arial, sans-serif" font-size="16" text-anchor="middle" fill="#111">C</text>
<rect x="304" y="440" width="28" height="28" fill="#fff" stroke="#222" stroke-width="1.2"/>
<text x="318" y="462" font-family="Helvetica, Arial, sans-serif" font-size="16" text-anchor="middle" fill="#111">B</text>
<rect x="528" y="440" width="28" height="28" fill="#fff" stroke="#222" stroke-width="1.2"/>
<text x="542" y="462" font-family="Helvetica, Arial, sans-serif" font-size="16" text-anchor="middle" fill="#111">O</text>
<rect x="52" y="468" width="28" height="28" fill="#fff" stroke="#222" stroke-width="1.2"/>
<text x="66" y="490" font-family="Helvetica, Arial, sans-serif" font-size="16" text-anchor="middle" fill="#111">R</text>
<rect x="164" y="468" width="28" height="28" fill="#fff" stroke="#222" stroke-width="1.2"/>
<text x="166.5" y="477" font-family="Helvetica, Arial, sans-serif" font-size="8" fill="#333">27</text>
<text x="178" y="490" font-family="Helvetica, Arial, sans-serif" font-size="16" text-anchor="middle" fill="#111">C</text>
<rect x="220" y="468" width="28" height="28" fill="#fff" stroke="#222" stroke-width="1.2"/>
<text x="234" y="490" font-family="Helvetica, Arial, sans-serif" font-size="16" text-anchor="middle" fill="#111">H</text>
<rect x="276" y="468" width="28" height="28" fill="#fff" stroke="#222" stroke-width="1.2"/>
<text x="278.5" y="477" font-family="Helvetica, Arial, sans-serif" font-size="8" fill="#333">28</text>
<text x="290" y="490" font-family="Helvetica, Arial, sans-serif" font-size="16" text-anchor="middle" fill="#111">D</text>
<rect x="304" y="468" width="28" height="28" fill="#fff" stroke="#222" stroke-width="1.2"/>
<text x="318" y="490" font-family="Helvetica, Arial, sans-serif" font-size="16" text-anchor="middle" fill="#111">O</text>
<rect x="332" y="468" width="28" height="28" fill="#fff" stroke="#222" stroke-width="1.2"/>
<text x="346" y="490" font-family="Helvetica, Arial, sans-serif" font-size="16" text-anchor="middle" fill="#111">U</text>
<rect x="360" y="468" width="28" height="28" fill="#fff" stroke="#222" stroke-width="1.2"/>
<text x="374" y="490" font-family="Helvetica, Arial, sans-serif" font-size="16" text-anchor="middle" fill="#111">G</text>
<rect x="388" y="468" width="28" height="28" fill="#fff" stroke="#222" stroke-width="1.2"/>
<text x="402" y="490" font-family="Helvetica, Arial, sans-serif" font-size="16" text-anchor="middle" fill="#111">L</text>
<rect x="416" y="468" width="28" height="28" fill="#fff" stroke="#222" stroke-width="1.2"/>
<text x="430" y="490" font-family="Helvetica, Arial, sans-serif" font-size="16" text-anchor="middle" fill="#111">A</text>
<rect x="444" y="468" width="28" height="28" fill="#fff" stroke="#222" stroke-width="1.2"/>
<text x="458" y="490" font-family="Helvetica, Arial, sans-serif" font-size="16" text-anchor="middle" fill="#111">S</text>
<rect x="472" y="468" width="28" height="28" fill="#fff" stroke="#222" stroke-width="1.2"/>
<text x="486" y="490" font-family="Helvetica, Arial, sans-serif" font-size="16" text-anchor="middle" fill="#111">F</text>
<rect x="500" y="468" width="28" height="28" fill="#fff" stroke="#222" stroke-width="1.2"/>
<text x="514" y="490" font-family="Helvetica, Arial, sans-serif" font-size="16" text-anchor="middle" fill="#111">I</text>
<rect x="528" y="468" width="28" height="28" fill="#fff" stroke="#222" stroke-width="1.2"/>
<text x="542" y="490" font-family="Helvetica, Arial, sans-serif" font-size="16" text-anchor="middle" fill="#111">R</text>
<rect x="52" y="496" width="28" height="28" fill="#fff" stroke="#222" stroke-width="1.2"/>
<text x="66" y="518" font-family="Helvetica, Arial, sans-serif" font-size="16" text-anchor="middle" fill="#111">A</text>
<rect x="108" y="496" width="28" height="28" fill="#fff" stroke="#222" stroke-width="1.2"/>
<text x="110.5" y="505" font-family="Helvetica, Arial, sans-serif" font-size="8" fill="#333">29</text>
<text x="122" y="518" font-family="Helvetica, Arial, sans-serif" font-size="16" text-anchor="middle" fill="#111">C</text>
<rect x="136" y="496" width="28" height="28" fill="#fff" stroke="#222" stroke-width="1.2"/>
<text x="150" y="518" font-family="Helvetica, Arial, sans-serif" font-size="16" text-anchor="middle" fill="#111">O</text>
<rect x="164" y="496" width="28" height="28" fill="#fff" stroke="#222" stroke-width="1.2"/>
<text x="178" y="518" font-family="Helvetica, Arial, sans-serif" font-size="16" text-anchor="middle" fill="#111">O</text>
<rect x="192" y="496" width="28" height="28" fill="#fff" stroke="#222" stroke-width="1.2"/>
<text x="206" y="518" font-family="Helvetica, Arial, sans-serif" font-size="16" text-anchor="middle" fill="#111">P</text>
<rect x="220" y="496" width="28" height="28" fill="#fff" stroke="#222" stroke-width="1.2"/>
<text x="234" y="518" font-family="Helvetica, Arial, sans-serif" font-size="16" text-anchor="middle" fill="#111">E</text>
<rect x="248" y="496" width="28" height="28" fill="#fff" stroke="#222" stroke-width="1.2"/>
<text x="262" y="518" font-family="Helvetica, Arial, sans-serif" font-size="16" text-anchor="middle" fill="#111">R</text>
<rect x="304" y="496" width="28" height="28" fill="#fff" stroke="#222" stroke-width="1.2"/>
<text x="318" y="518" font-family="Helvetica, Arial, sans-serif" font-size="16" text-anchor="middle" fill="#111">Z</text>
<rect x="528" y="496" width="28" height="28" fill="#fff" stroke="#222" stroke-width="1.2"/>
<text x="542" y="518" font-family="Helvetica, Arial, sans-serif" font-size="16" text-anchor="middle" fill="#111">T</text>
<rect x="24" y="524" width="28" height="28" fill="#fff" stroke="#222" stroke-width="1.2"/>
<text x="26.5" y="533" font-family="Helvetica, Arial, sans-serif" font-size="8" fill="#333">30</text>
<text x="38" y="546" font-family="Helvetica, Arial, sans-serif" font-size="16" text-anchor="middle" fill="#111">B</text>
<rect x="80" y="524" width="28" height="28" fill="#fff" stroke="#222" stroke-width="1.2"/>
<text x="82.5" y="533" font-family="Helvetica, Arial, sans-serif" font-size="8" fill="#333">31</text>
<text x="94" y="546" font-family="Helvetica, Arial, sans-serif" font-size="16" text-anchor="middle" fill="#111">R</text>
<rect x="164" y="524" width="28" height="28" fill="#fff" stroke="#222" stroke-width="1.2"/>
<text x="178" y="546" font-family="Helvetica, Arial, sans-serif" font-size="16" text-anchor="middle" fill="#111">F</text>
<rect x="220" y="524" width="28" height="28" fill="#fff" stroke="#222" stroke-width="1.2"/>
<text x="234" y="546" font-family="Helvetica, Arial, sans-serif" font-size="16" text-anchor="middle" fill="#111">R</text>
<rect x="304" y="524" width="28" height="28" fill="#fff" stroke="#222" stroke-width="1.2"/>
<text x="318" y="546" font-family="Helvetica, Arial, sans-serif" font-size="16" text-anchor="middle" fill="#111">I</text>
<rect x="528" y="524" width="28" height="28" fill="#fff" stroke="#222" stroke-width="1.2"/>
<text x="542" y="546" font-family="Helvetica, Arial, sans-serif" font-size="16" text-anchor="middle" fill="#111">H</text>
<rect x="24" y="552" width="28" height="28" fill="#fff" stroke="#222" stroke-width="1.2"/>
<text x="38" y="574" font-family="Helvetica, Arial, sans-serif" font-size="16" text-anchor="middle" fill="#111">E</text>
<rect x="80" y="552" width="28" height="28" fill="#fff" stroke="#222" stroke-width="1.2"/>
<text x="94" y="574" font-family="Helvetica, Arial, sans-serif" font-size="16" text-anchor="middle" fill="#111">E</text>
<rect x="164" y="552" width="28" height="28" fill="#fff" stroke="#222" stroke-width="1.2"/>
<text x="166.5" y="561" font-family="Helvetica, Arial, sans-serif" font-size="8" fill="#333">32</text>
<text x="178" y="574" font-family="Helvetica, Arial, sans-serif" font-size="16" text-anchor="middle" fill="#111">F</text>
<rect x="192" y="552" width="28" height="28" fill="#fff" stroke="#222" stroke-width="1.2"/>
<text x="206" y="574" font-family="Helvetica, Arial, sans-serif" font-size="16" text-anchor="middle" fill="#111">I</text>
<rect x="220" y="552" width="28" height="28" fill="#fff" stroke="#222" stroke-width="1.2"/>
<text x="234" y="574" font-family="Helvetica, Arial, sans-serif" font-size="16" text-anchor="middle" fill="#111">R</text>
<rect x="248" y="552" width="28" height="28" fill="#fff" stroke="#222" stroke-width="1.2"/>
<text x="262" y="574" font-family="Helvetica, Arial, sans-serif" font-size="16" text-anchor="middle" fill="#111">E</text>
<rect x="276" y="552" width="28" height="28" fill="#fff" stroke="#222" stroke-width="1.2"/>
<text x="290" y="574" font-family="Helvetica, Arial, sans-serif" font-size="16" text-anchor="middle" fill="#111">W</text>
<rect x="304" y="552" width="28" height="28" fill="#fff" stroke="#222" stroke-width="1.2"/>
<text x="318" y="574" font-family="Helvetica, Arial, sans-serif" font-size="16" text-anchor="middle" fill="#111">A</text>
<rect x="332" y="552" width="28" height="28" fill="#fff" stroke="#222" stroke-width="1.2"/>
<text x="334.5" y="561" font-family="Helvetica, Arial, sans-serif" font-size="8" fill="#333">33</text>
<text x="346" y="574" font-family="Helvetica, Arial, sans-serif" font-size="16" text-anchor="middle" fill="#111">L</text>
<rect x="360" y="552" width="28" height="28" fill="#fff" stroke="#222" stroke-width="1.2"/>
<text x="374" y="574" font-family="Helvetica, Arial, sans-serif" font-size="16" text-anchor="middle" fill="#111">K</text>
<rect x="388" y="552" width="28" height="28" fill="#fff" stroke="#222" stroke-width="1.2"/>
<text x="402" y="574" font-family="Helvetica, Arial, sans-serif" font-size="16" text-anchor="middle" fill="#111">W</text>
<rect x="416" y="552" width="28" height="28" fill="#fff" stroke="#222" stroke-width="1.2"/>
<text x="430" y="574" font-family="Helvetica, Arial, sans-serif" font-size="16" text-anchor="middle" fill="#111">I</text>
<rect x="444" y="552" width="28" height="28" fill="#fff" stroke="#222" stroke-width="1.2"/>
<text x="458" y="574" font-family="Helvetica, Arial, sans-serif" font-size="16" text-anchor="middle" fill="#111">T</text>
<rect x="472" y="552" width="28" height="28" fill="#fff" stroke="#222" stroke-width="1.2"/>
<text x="474.5" y="561" font-family="Helvetica, Arial, sans-serif" font-size="8" fill="#333">34</text>
<text x="486" y="574" font-family="Helvetica, Arial, sans-serif" font-size="16" text-anchor="middle" fill="#111">H</text>
<rect x="500" y="552" width="28" height="28" fill="#fff" stroke="#222" stroke-width="1.2"/>
<text x="514" y="574" font-family="Helvetica, Arial, sans-serif" font-size="16" text-anchor="middle" fill="#111">M</text>
<rect x="528" y="552" width="28" height="28" fill="#fff" stroke="#222" stroke-width="1.2"/>
<text x="542" y="574" font-family="Helvetica, Arial, sans-serif" font-size="16" text-anchor="middle" fill="#111">E</text>
<rect x="24" y="580" width="28" height="28" fill="#fff" stroke="#222" stroke-width="1.2"/>
<text x="26.5" y="589" font-family="Helvetica, Arial, sans-serif" font-size="8" fill="#333">35</text>
<text x="38" y="602" font-family="Helvetica, Arial, sans-serif" font-size="16" text-anchor="middle" fill="#111">N</text>
<rect x="52" y="580" width="28" height="28" fill="#fff" stroke="#222" stroke-width="1.2"/>
<text x="66" y="602" font-family="Helvetica, Arial, sans-serif" font-size="16" text-anchor="middle" fill="#111">A</text>
<rect x="80" y="580" width="28" height="28" fill="#fff" stroke="#222" stroke-width="1.2"/>
<text x="94" y="602" font-family="Helvetica, Arial, sans-serif" font-size="16" text-anchor="middle" fill="#111">D</text>
<rect x="108" y="580" width="28" height="28" fill="#fff" stroke="#222" stroke-width="1.2"/>
<text x="122" y="602" font-family="Helvetica, Arial, sans-serif" font-size="16" text-anchor="middle" fill="#111">I</text>
<rect x="136" y="580" width="28" height="28" fill="#fff" stroke="#222" stroke-width="1.2"/>
<text x="150" y="602" font-family="Helvetica, Arial, sans-serif" font-size="16" text-anchor="middle" fill="#111">N</text>
<rect x="164" y="580" width="28" height="28" fill="#fff" stroke="#222" stroke-width="1.2"/>
<text x="178" y="602" font-family="Helvetica, Arial, sans-serif" font-size="16" text-anchor="middle" fill="#111">E</text>
<rect x="220" y="580" width="28" height="28" fill="#fff" stroke="#222" stroke-width="1.2"/>
<text x="234" y="602" font-family="Helvetica, Arial, sans-serif" font-size="16" text-anchor="middle" fill="#111">Y</text>
<rect x="332" y="580" width="28" height="28" fill="#fff" stroke="#222" stroke-width="1.2"/>
<text x="346" y="602" font-family="Helvetica, Arial, sans-serif" font-size="16" text-anchor="middle" fill="#111">E</text>
<rect x="472" y="580" width="28" height="28" fill="#fff" stroke="#222" stroke-width="1.2"/>
<text x="486" y="602" font-family="Helvetica, Arial, sans-serif" font-size="16" text-anchor="middle" fill="#111">A</text>
<rect x="528" y="580" width="28" height="28" fill="#fff" stroke="#222" stroke-width="1.2"/>
<text x="542" y="602" font-family="Helvetica, Arial, sans-serif" font-size="16" text-anchor="middle" fill="#111">R</text>
<rect x="80" y="608" width="28" height="28" fill="#fff" stroke="#222" stroke-width="1.2"/>
<text x="94" y="630" font-family="Helvetica, Arial, sans-serif" font-size="16" text-anchor="middle" fill="#111">R</text>
<rect x="164" y="608" width="28" height="28" fill="#fff" stroke="#222" stroke-width="1.2"/>
<text x="178" y="630" font-family="Helvetica, Arial, sans-serif" font-size="16" text-anchor="middle" fill="#111">E</text>
<rect x="220" y="608" width="28" height="28" fill="#fff" stroke="#222" stroke-width="1.2"/>
<text x="222.5" y="617" font-family="Helvetica, Arial, sans-serif" font-size="8" fill="#333">36</text>
<text x="234" y="630" font-family="Helvetica, Arial, sans-serif" font-size="16" text-anchor="middle" fill="#111">P</text>
<rect x="248" y="608" width="28" height="28" fill="#fff" stroke="#222" stroke-width="1.2"/>
<text x="262" y="630" font-family="Helvetica, Arial, sans-serif" font-size="16" text-anchor="middle" fill="#111">E</text>
<rect x="276" y="608" width="28" height="28" fill="#fff" stroke="#222" stroke-width="1.2"/>
<text x="290" y="630" font-family="Helvetica, Arial, sans-serif" font-size="16" text-anchor="middle" fill="#111">R</text>
<rect x="304" y="608" width="28" height="28" fill="#fff" stroke="#222" stroke-width="1.2"/>
<text x="318" y="630" font-family="Helvetica, Arial, sans-serif" font-size="16" text-anchor="middle" fill="#111">C</text>
<rect x="332" y="608" width="28" height="28" fill="#fff" stroke="#222" stroke-width="1.2"/>
<text x="346" y="630" font-family="Helvetica, Arial, sans-serif" font-size="16" text-anchor="middle" fill="#111">O</text>
<rect x="360" y="608" width="28" height="28" fill="#fff" stroke="#222" stroke-width="1.2"/>
<text x="374" y="630" font-family="Helvetica, Arial, sans-serif" font-size="16" text-anchor="middle" fill="#111">L</text>
<rect x="388" y="608" width="28" height="28" fill="#fff" stroke="#222" stroke-width="1.2"/>
<text x="402" y="630" font-family="Helvetica, Arial, sans-serif" font-size="16" text-anchor="middle" fill="#111">A</text>
<rect x="416" y="608" width="28" height="28" fill="#fff" stroke="#222" stroke-width="1.2"/>
<text x="430" y="630" font-family="Helvetica, Arial, sans-serif" font-size="16" text-anchor="middle" fill="#111">T</text>
<rect x="444" y="608" width="28" height="28" fill="#fff" stroke="#222" stroke-width="1.2"/>
<text x="458" y="630" font-family="Helvetica, Arial, sans-serif" font-size="16" text-anchor="middle" fill="#111">O</text>
<rect x="472" y="608" width="28" height="28" fill="#fff" stroke="#222" stroke-width="1.2"/>
<text x="486" y="630" font-family="Helvetica, Arial, sans-serif" font-size="16" text-anchor="middle" fill="#111">R</text>
<rect x="528" y="608" width="28" height="28" fill="#fff" stroke="#222" stroke-width="1.2"/>
<text x="542" y="630" font-family="Helvetica, Arial, sans-serif" font-size="16" text-anchor="middle" fill="#111">N</text>
<rect x="80" y="636" width="28" height="28" fill="#fff" stroke="#222" stroke-width="1.2"/>
<text x="94" y="658" font-family="Helvetica, Arial, sans-serif" font-size="16" text-anchor="middle" fill="#111">O</text>
<rect x="220" y="636" width="28" height="28" fill="#fff" stroke="#222" stroke-width="1.2"/>
<text x="234" y="658" font-family="Helvetica, Arial, sans-serif" font-size="16" text-anchor="middle" fill="#111">I</text>
<rect x="472" y="636" width="28" height="28" fill="#fff" stroke="#222" stroke-width="1.2"/>
<text x="486" y="658" font-family="Helvetica, Arial, sans-serif" font-size="16" text-anchor="middle" fill="#111">R</text>
<rect x="80" y="664" width="28" height="28" fill="#fff" stroke="#222" stroke-width="1.2"/>
<text x="82.5" y="673" font-family="Helvetica, Arial, sans-serif" font-size="8" fill="#333">37</text>
<text x="94" y="686" font-family="Helvetica, Arial, sans-serif" font-size="16" text-anchor="middle" fill="#111">O</text>
<rect x="108" y="664" width="28" height="28" fill="#fff" stroke="#222" stroke-width="1.2"/>
<text x="122" y="686" font-family="Helvetica, Arial, sans-serif" font-size="16" text-anchor="middle" fill="#111">N</text>
<rect x="136" y="664" width="28" height="28" fill="#fff" stroke="#222" stroke-width="1.2"/>
<text x="150" y="686" font-family="Helvetica, Arial, sans-serif" font-size="16" text-anchor="middle" fill="#111">E</text>
<rect x="164" y="664" width="28" height="28" fill="#fff" stroke="#222" stroke-width="1.2"/>
<text x="178" y="686" font-family="Helvetica, Arial, sans-serif" font-size="16" text-anchor="middle" fill="#111">E</text>
<rect x="192" y="664" width="28" height="28" fill="#fff" stroke="#222" stroke-width="1.2"/>
<text x="206" y="686" font-family="Helvetica, Arial, sans-serif" font-size="16" text-anchor="middle" fill="#111">Y</text>
<rect x="220" y="664" width="28" height="28" fill="#fff" stroke="#222" stroke-width="1.2"/>
<text x="234" y="686" font-family="Helvetica, Arial, sans-serif" font-size="16" text-anchor="middle" fill="#111">E</text>
<rect x="248" y="664" width="28" height="28" fill="#fff" stroke="#222" stroke-width="1.2"/>
<text x="262" y="686" font-family="Helvetica, Arial, sans-serif" font-size="16" text-anchor="middle" fill="#111">D</text>
<rect x="276" y="664" width="28" height="28" fill="#fff" stroke="#222" stroke-width="1.2"/>
<text x="290" y="686" font-family="Helvetica, Arial, sans-serif" font-size="16" text-anchor="middle" fill="#111">J</text>
<rect x="304" y="664" width="28" height="28" fill="#fff" stroke="#222" stroke-width="1.2"/>
<text x="318" y="686" font-family="Helvetica, Arial, sans-serif" font-size="16" text-anchor="middle" fill="#111">A</text>
<rect x="332" y="664" width="28" height="28" fill="#fff" stroke="#222" stroke-width="1.2"/>
<text x="346" y="686" font-family="Helvetica, Arial, sans-serif" font-size="16" text-anchor="middle" fill="#111">C</text>
<rect x="360" y="664" width="28" height="28" fill="#fff" stroke="#222" stroke-width="1.2"/>
<text x="374" y="686" font-family="Helvetica, Arial, sans-serif" font-size="16" text-anchor="middle" fill="#111">K</text>
<rect x="388" y="664" width="28" height="28" fill="#fff" stroke="#222" stroke-width="1.2"/>
<text x="402" y="686" font-family="Helvetica, Arial, sans-serif" font-size="16" text-anchor="middle" fill="#111">S</text>
<rect x="444" y="664" width="28" height="28" fill="#fff" stroke="#222" stroke-width="1.2"/>
<text x="446.5" y="673" font-family="Helvetica, Arial, sans-serif" font-size="8" fill="#333">38</text>
<text x="458" y="686" font-family="Helvetica, Arial, sans-serif" font-size="16" text-anchor="middle" fill="#111">L</text>
<rect x="472" y="664" width="28" height="28" fill="#fff" stroke="#222" stroke-width="1.2"/>
<text x="486" y="686" font-family="Helvetica, Arial, sans-serif" font-size="16" text-anchor="middle" fill="#111">Y</text>
<rect x="500" y="664" width="28" height="28" fill="#fff" stroke="#222" stroke-width="1.2"/>
<text x="514" y="686" font-family="Helvetica, Arial, sans-serif" font-size="16" text-anchor="middle" fill="#111">N</text>
<rect x="528" y="664" width="28" height="28" fill="#fff" stroke="#222" stroke-width="1.2"/>
<text x="542" y="686" font-family="Helvetica, Arial, sans-serif" font-size="16" text-anchor="middle" fill="#111">C</text>
<rect x="556" y="664" width="28" height="28" fill="#fff" stroke="#222" stroke-width="1.2"/>
<text x="570" y="686" font-family="Helvetica, Arial, sans-serif" font-size="16" text-anchor="middle" fill="#111">H</text>
<rect x="24" y="692" width="28" height="28" fill="#fff" stroke="#222" stroke-width="1.2"/>
<text x="26.5" y="701" font-family="Helvetica, Arial, sans-serif" font-size="8" fill="#333">39</text>
<text x="38" y="714" font-family="Helvetica, Arial, sans-serif" font-size="16" text-anchor="middle" fill="#111">G</text>
<rect x="52" y="692" width="28" height="28" fill="#fff" stroke="#222" stroke-width="1.2"/>
<text x="66" y="714" font-family="Helvetica, Arial, sans-serif" font-size="16" text-anchor="middle" fill="#111">U</text>
<rect x="80" y="692" width="28" height="28" fill="#fff" stroke="#222" stroke-width="1.2"/>
<text x="94" y="714" font-family="Helvetica, Arial, sans-serif" font-size="16" text-anchor="middle" fill="#111">M</text>
</svg>
