<svg xmlns="http://www.w3.org/2000/svg" viewBox="0 0 640 640" width="640" height="640">
  <rect width="640" height="640" fill="#14151a"/>
  <g fill="none" stroke-width="13.6" stroke-linecap="round">
    <path d="M20,0 A20,20 0 0 0 40,20" stroke="#f94144"/>
    <path d="M20,40 A20,20 0 0 0 0,20" stroke="#f3722c"/>
    <path d="M60,0 A20,20 0 0 0 80,20" stroke="#f8961e"/>
    <path d="M60,40 A20,20 0 0 0 40,20" stroke="#f94144"/>
    <path d="M100,0 A20,20 0 0 1 80,20" stroke="#f8961e"/>
    <path d="M100,40 A20,20 0 0 1 120,20" stroke="#f9c74f"/>
    <path d="M140,0 A20,20 0 0 1 120,20" stroke="#f9c74f"/>
    <path d="M140,40 A20,20 0 0 1 160,20" stroke="#f9c74f"/>
    <path d="M180,0 A20,20 0 0 0 200,20" stroke="#f9c74f"/>
    <path d="M180,40 A20,20 0 0 0 160,20" stroke="#f9c74f"/>
    <path d="M220,0 A20,20 0 0 0 240,20" stroke="#90be6d"/>
    <path d="M220,40 A20,20 0 0 0 200,20" stroke="#f9c74f"/>
    <path d="M260,0 A20,20 0 0 1 240,20" stroke="#90be6d"/>
    <path d="M260,40 A20,20 0 0 1 280,20" stroke="#43aa8b"/>
    <path d="M300,0 A20,20 0 0 1 280,20" stroke="#43aa8b"/>
    <path d="M300,40 A20,20 0 0 1 320,20" stroke="#43aa8b"/>
    <path d="M340,0 A20,20 0 0 0 360,20" stroke="#43aa8b"/>
    <path d="M340,40 A20,20 0 0 0 320,20" stroke="#43aa8b"/>
    <path d="M380,0 A20,20 0 0 0 400,20" stroke="#4d908e"/>
    <path d="M380,40 A20,20 0 0 0 360,20" stroke="#43aa8b"/>
    <path d="M420,0 A20,20 0 0 1 400,20" stroke="#4d908e"/>
    <path d="M420,40 A20,20 0 0 1 440,20" stroke="#577590"/>
    <path d="M460,0 A20,20 0 0 1 440,20" stroke="#577590"/>
    <path d="M460,40 A20,20 0 0 1 480,20" stroke="#277da1"/>
    <path d="M500,0 A20,20 0 0 1 480,20" stroke="#277da1"/>
    <path d="M500,40 A20,20 0 0 1 520,20" stroke="#b5179e"/>
    <path d="M540,0 A20,20 0 0 0 560,20" stroke="#b5179e"/>
    <path d="M540,40 A20,20 0 0 0 520,20" stroke="#b5179e"/>
    <path d="M580,0 A20,20 0 0 0 600,20" stroke="#7209b7"/>
    <path d="M580,40 A20,20 0 0 0 560,20" stroke="#b5179e"/>
    <path d="M620,0 A20,20 0 0 0 640,20" stroke="#4cc9f0"/>
    <path d="M620,40 A20,20 0 0 0 600,20" stroke="#7209b7"/>
    <path d="M20,40 A20,20 0 0 1 0,60" stroke="#f3722c"/>
    <path d="M20,80 A20,20 0 0 1 40,60" stroke="#f94144"/>
    <path d="M60,40 A20,20 0 0 0 80,60" stroke="#f94144"/>
    <path d="M60,80 A20,20 0 0 0 40,60" stroke="#f94144"/>
    <path d="M100,40 A20,20 0 0 0 120,60" stroke="#f9c74f"/>
    <path d="M100,80 A20,20 0 0 0 80,60" stroke="#f94144"/>
    <path d="M140,40 A20,20 0 0 0 160,60" stroke="#f9c74f"/>
    <path d="M140,80 A20,20 0 0 0 120,60" stroke="#f9c74f"/>
    <path d="M180,40 A20,20 0 0 0 200,60" stroke="#f9c74f"/>
    <path d="M180,80 A20,20 0 0 0 160,60" stroke="#f9c74f"/>
    <path d="M220,40 A20,20 0 0 1 200,60" stroke="#f9c74f"/>
    <path d="M220,80 A20,20 0 0 1 240,60" stroke="#f94144"/>
    <path d="M260,40 A20,20 0 0 0 280,60" stroke="#43aa8b"/>
    <path d="M260,80 A20,20 0 0 0 240,60" stroke="#f94144"/>
    <path d="M300,40 A20,20 0 0 1 280,60" stroke="#43aa8b"/>
    <path d="M300,80 A20,20 0 0 1 320,60" stroke="#43aa8b"/>
    <path d="M340,40 A20,20 0 0 1 320,60" stroke="#43aa8b"/>
    <path d="M340,80 A20,20 0 0 1 360,60" stroke="#43aa8b"/>
    <path d="M380,40 A20,20 0 0 1 360,60" stroke="#43aa8b"/>
    <path d="M380,80 A20,20 0 0 1 400,60" stroke="#577590"/>
    <path d="M420,40 A20,20 0 0 1 400,60" stroke="#577590"/>
    <path d="M420,80 A20,20 0 0 1 440,60" stroke="#277da1"/>
    <path d="M460,40 A20,20 0 0 1 440,60" stroke="#277da1"/>
    <path d="M460,80 A20,20 0 0 1 480,60" stroke="#b5179e"/>
    <path d="M500,40 A20,20 0 0 1 480,60" stroke="#b5179e"/>
    <path d="M500,80 A20,20 0 0 1 520,60" stroke="#b5179e"/>
    <path d="M540,40 A20,20 0 0 0 560,60" stroke="#b5179e"/>
    <path d="M540,80 A20,20 0 0 0 520,60" stroke="#b5179e"/>
    <path d="M580,40 A20,20 0 0 1 560,60" stroke="#b5179e"/>
    <path d="M580,80 A20,20 0 0 1 600,60" stroke="#b5179e"/>
    <path d="M620,40 A20,20 0 0 0 640,60" stroke="#7209b7"/>
    <path d="M620,80 A20,20 0 0 0 600,60" stroke="#b5179e"/>
    <path d="M20,80 A20,20 0 0 0 40,100" stroke="#f94144"/>
    <path d="M20,120 A20,20 0 0 0 0,100" stroke="#f3722c"/>
    <path d="M60,80 A20,20 0 0 0 80,100" stroke="#f94144"/>
    <path d="M60,120 A20,20 0 0 0 40,100" stroke="#f94144"/>
    <path d="M100,80 A20,20 0 0 1 80,100" stroke="#f94144"/>
    <path d="M100,120 A20,20 0 0 1 120,100" stroke="#f8961e"/>
    <path d="M140,80 A20,20 0 0 0 160,100" stroke="#f9c74f"/>
    <path d="M140,120 A20,20 0 0 0 120,100" stroke="#f8961e"/>
    <path d="M180,80 A20,20 0 0 1 160,100" stroke="#f9c74f"/>
    <path d="M180,120 A20,20 0 0 1 200,100" stroke="#f94144"/>
    <path d="M220,80 A20,20 0 0 1 200,100" stroke="#f94144"/>
    <path d="M220,120 A20,20 0 0 1 240,100" stroke="#f94144"/>
    <path d="M260,80 A20,20 0 0 1 240,100" stroke="#f94144"/>
    <path d="M260,120 A20,20 0 0 1 280,100" stroke="#43aa8b"/>
    <path d="M300,80 A20,20 0 0 1 280,100" stroke="#43aa8b"/>
    <path d="M300,120 A20,20 0 0 1 320,100" stroke="#43aa8b"/>
    <path d="M340,80 A20,20 0 0 1 320,100" stroke="#43aa8b"/>
    <path d="M340,120 A20,20 0 0 1 360,100" stroke="#577590"/>
    <path d="M380,80 A20,20 0 0 1 360,100" stroke="#577590"/>
    <path d="M380,120 A20,20 0 0 1 400,100" stroke="#277da1"/>
    <path d="M420,80 A20,20 0 0 1 400,100" stroke="#277da1"/>
    <path d="M420,120 A20,20 0 0 1 440,100" stroke="#277da1"/>
    <path d="M460,80 A20,20 0 0 0 480,100" stroke="#b5179e"/>
    <path d="M460,120 A20,20 0 0 0 440,100" stroke="#277da1"/>
    <path d="M500,80 A20,20 0 0 1 480,100" stroke="#b5179e"/>
    <path d="M500,120 A20,20 0 0 1 520,100" stroke="#277da1"/>
    <path d="M540,80 A20,20 0 0 0 560,100" stroke="#b5179e"/>
    <path d="M540,120 A20,20 0 0 0 520,100" stroke="#277da1"/>
    <path d="M580,80 A20,20 0 0 1 560,100" stroke="#b5179e"/>
    <path d="M580,120 A20,20 0 0 1 600,100" stroke="#f9c74f"/>
    <path d="M620,80 A20,20 0 0 0 640,100" stroke="#b5179e"/>
    <path d="M620,120 A20,20 0 0 0 600,100" stroke="#f9c74f"/>
    <path d="M20,120 A20,20 0 0 1 0,140" stroke="#f3722c"/>
    <path d="M20,160 A20,20 0 0 1 40,140" stroke="#90be6d"/>
    <path d="M60,120 A20,20 0 0 0 80,140" stroke="#f94144"/>
    <path d="M60,160 A20,20 0 0 0 40,140" stroke="#90be6d"/>
    <path d="M100,120 A20,20 0 0 0 120,140" stroke="#f8961e"/>
    <path d="M100,160 A20,20 0 0 0 80,140" stroke="#f94144"/>
    <path d="M140,120 A20,20 0 0 1 120,140" stroke="#f8961e"/>
    <path d="M140,160 A20,20 0 0 1 160,140" stroke="#f94144"/>
    <path d="M180,120 A20,20 0 0 1 160,140" stroke="#f94144"/>
    <path d="M180,160 A20,20 0 0 1 200,140" stroke="#43aa8b"/>
    <path d="M220,120 A20,20 0 0 0 240,140" stroke="#f94144"/>
    <path d="M220,160 A20,20 0 0 0 200,140" stroke="#43aa8b"/>
    <path d="M260,120 A20,20 0 0 0 280,140" stroke="#43aa8b"/>
    <path d="M260,160 A20,20 0 0 0 240,140" stroke="#f94144"/>
    <path d="M300,120 A20,20 0 0 1 280,140" stroke="#43aa8b"/>
    <path d="M300,160 A20,20 0 0 1 320,140" stroke="#577590"/>
    <path d="M340,120 A20,20 0 0 1 320,140" stroke="#577590"/>
    <path d="M340,160 A20,20 0 0 1 360,140" stroke="#577590"/>
    <path d="M380,120 A20,20 0 0 0 400,140" stroke="#277da1"/>
    <path d="M380,160 A20,20 0 0 0 360,140" stroke="#577590"/>
    <path d="M420,120 A20,20 0 0 1 400,140" stroke="#277da1"/>
    <path d="M420,160 A20,20 0 0 1 440,140" stroke="#577590"/>
    <path d="M460,120 A20,20 0 0 0 480,140" stroke="#277da1"/>
    <path d="M460,160 A20,20 0 0 0 440,140" stroke="#577590"/>
    <path d="M500,120 A20,20 0 0 1 480,140" stroke="#277da1"/>
    <path d="M500,160 A20,20 0 0 1 520,140" stroke="#4d908e"/>
    <path d="M540,120 A20,20 0 0 0 560,140" stroke="#277da1"/>
    <path d="M540,160 A20,20 0 0 0 520,140" stroke="#4d908e"/>
    <path d="M580,120 A20,20 0 0 0 600,140" stroke="#f9c74f"/>
    <path d="M580,160 A20,20 0 0 0 560,140" stroke="#277da1"/>
    <path d="M620,120 A20,20 0 0 1 600,140" stroke="#f9c74f"/>
    <path d="M620,160 A20,20 0 0 1 640,140" stroke="#577590"/>
    <path d="M20,160 A20,20 0 0 1 0,180" stroke="#90be6d"/>
    <path d="M20,200 A20,20 0 0 1 40,180" stroke="#90be6d"/>
    <path d="M60,160 A20,20 0 0 1 40,180" stroke="#90be6d"/>
    <path d="M60,200 A20,20 0 0 1 80,180" stroke="#277da1"/>
    <path d="M100,160 A20,20 0 0 0 120,180" stroke="#f94144"/>
    <path d="M100,200 A20,20 0 0 0 80,180" stroke="#277da1"/>
    <path d="M140,160 A20,20 0 0 0 160,180" stroke="#f94144"/>
    <path d="M140,200 A20,20 0 0 0 120,180" stroke="#f94144"/>
    <path d="M180,160 A20,20 0 0 0 200,180" stroke="#43aa8b"/>
    <path d="M180,200 A20,20 0 0 0 160,180" stroke="#f94144"/>
    <path d="M220,160 A20,20 0 0 1 200,180" stroke="#43aa8b"/>
    <path d="M220,200 A20,20 0 0 1 240,180" stroke="#f94144"/>
    <path d="M260,160 A20,20 0 0 1 240,180" stroke="#f94144"/>
    <path d="M260,200 A20,20 0 0 1 280,180" stroke="#577590"/>
    <path d="M300,160 A20,20 0 0 1 280,180" stroke="#577590"/>
    <path d="M300,200 A20,20 0 0 1 320,180" stroke="#577590"/>
    <path d="M340,160 A20,20 0 0 0 360,180" stroke="#577590"/>
    <path d="M340,200 A20,20 0 0 0 320,180" stroke="#577590"/>
    <path d="M380,160 A20,20 0 0 0 400,180" stroke="#577590"/>
    <path d="M380,200 A20,20 0 0 0 360,180" stroke="#577590"/>
    <path d="M420,160 A20,20 0 0 1 400,180" stroke="#577590"/>
    <path d="M420,200 A20,20 0 0 1 440,180" stroke="#b5179e"/>
    <path d="M460,160 A20,20 0 0 0 480,180" stroke="#577590"/>
    <path d="M460,200 A20,20 0 0 0 440,180" stroke="#b5179e"/>
    <path d="M500,160 A20,20 0 0 0 520,180" stroke="#4d908e"/>
    <path d="M500,200 A20,20 0 0 0 480,180" stroke="#577590"/>
    <path d="M540,160 A20,20 0 0 0 560,180" stroke="#4d908e"/>
    <path d="M540,200 A20,20 0 0 0 520,180" stroke="#4d908e"/>
    <path d="M580,160 A20,20 0 0 0 600,180" stroke="#277da1"/>
    <path d="M580,200 A20,20 0 0 0 560,180" stroke="#4d908e"/>
    <path d="M620,160 A20,20 0 0 0 640,180" stroke="#577590"/>
    <path d="M620,200 A20,20 0 0 0 600,180" stroke="#277da1"/>
    <path d="M20,200 A20,20 0 0 1 0,220" stroke="#90be6d"/>
    <path d="M20,240 A20,20 0 0 1 40,220" stroke="#277da1"/>
    <path d="M60,200 A20,20 0 0 1 40,220" stroke="#277da1"/>
    <path d="M60,240 A20,20 0 0 1 80,220" stroke="#277da1"/>
    <path d="M100,200 A20,20 0 0 1 80,220" stroke="#277da1"/>
    <path d="M100,240 A20,20 0 0 1 120,220" stroke="#7209b7"/>
    <path d="M140,200 A20,20 0 0 0 160,220" stroke="#f94144"/>
    <path d="M140,240 A20,20 0 0 0 120,220" stroke="#7209b7"/>
    <path d="M180,200 A20,20 0 0 0 200,220" stroke="#f94144"/>
    <path d="M180,240 A20,20 0 0 0 160,220" stroke="#f94144"/>
    <path d="M220,200 A20,20 0 0 1 200,220" stroke="#f94144"/>
    <path d="M220,240 A20,20 0 0 1 240,220" stroke="#577590"/>
    <path d="M260,200 A20,20 0 0 1 240,220" stroke="#577590"/>
    <path d="M260,240 A20,20 0 0 1 280,220" stroke="#577590"/>
    <path d="M300,200 A20,20 0 0 1 280,220" stroke="#577590"/>
    <path d="M300,240 A20,20 0 0 1 320,220" stroke="#577590"/>
    <path d="M340,200 A20,20 0 0 0 360,220" stroke="#577590"/>
    <path d="M340,240 A20,20 0 0 0 320,220" stroke="#577590"/>
    <path d="M380,200 A20,20 0 0 1 360,220" stroke="#577590"/>
    <path d="M380,240 A20,20 0 0 1 400,220" stroke="#b5179e"/>
    <path d="M420,200 A20,20 0 0 1 400,220" stroke="#b5179e"/>
    <path d="M420,240 A20,20 0 0 1 440,220" stroke="#b5179e"/>
    <path d="M460,200 A20,20 0 0 1 440,220" stroke="#b5179e"/>
    <path d="M460,240 A20,20 0 0 1 480,220" stroke="#577590"/>
    <path d="M500,200 A20,20 0 0 1 480,220" stroke="#577590"/>
    <path d="M500,240 A20,20 0 0 1 520,220" stroke="#4cc9f0"/>
    <path d="M540,200 A20,20 0 0 0 560,220" stroke="#4d908e"/>
    <path d="M540,240 A20,20 0 0 0 520,220" stroke="#4cc9f0"/>
    <path d="M580,200 A20,20 0 0 1 560,220" stroke="#4d908e"/>
    <path d="M580,240 A20,20 0 0 1 600,220" stroke="#277da1"/>
    <path d="M620,200 A20,20 0 0 1 600,220" stroke="#277da1"/>
    <path d="M620,240 A20,20 0 0 1 640,220" stroke="#277da1"/>
    <path d="M20,240 A20,20 0 0 0 40,260" stroke="#277da1"/>
    <path d="M20,280 A20,20 0 0 0 0,260" stroke="#f94144"/>
    <path d="M60,240 A20,20 0 0 1 40,260" stroke="#277da1"/>
    <path d="M60,280 A20,20 0 0 1 80,260" stroke="#7209b7"/>
    <path d="M100,240 A20,20 0 0 1 80,260" stroke="#7209b7"/>
    <path d="M100,280 A20,20 0 0 1 120,260" stroke="#7209b7"/>
    <path d="M140,240 A20,20 0 0 1 120,260" stroke="#7209b7"/>
    <path d="M140,280 A20,20 0 0 1 160,260" stroke="#f94144"/>
    <path d="M180,240 A20,20 0 0 1 160,260" stroke="#f94144"/>
    <path d="M180,280 A20,20 0 0 1 200,260" stroke="#577590"/>
    <path d="M220,240 A20,20 0 0 1 200,260" stroke="#577590"/>
    <path d="M220,280 A20,20 0 0 1 240,260" stroke="#f3722c"/>
    <path d="M260,240 A20,20 0 0 0 280,260" stroke="#577590"/>
    <path d="M260,280 A20,20 0 0 0 240,260" stroke="#f3722c"/>
    <path d="M300,240 A20,20 0 0 1 280,260" stroke="#577590"/>
    <path d="M300,280 A20,20 0 0 1 320,260" stroke="#577590"/>
    <path d="M340,240 A20,20 0 0 1 320,260" stroke="#577590"/>
    <path d="M340,280 A20,20 0 0 1 360,260" stroke="#f8961e"/>
    <path d="M380,240 A20,20 0 0 0 400,260" stroke="#b5179e"/>
    <path d="M380,280 A20,20 0 0 0 360,260" stroke="#f8961e"/>
    <path d="M420,240 A20,20 0 0 1 400,260" stroke="#b5179e"/>
    <path d="M420,280 A20,20 0 0 1 440,260" stroke="#577590"/>
    <path d="M460,240 A20,20 0 0 0 480,260" stroke="#577590"/>
    <path d="M460,280 A20,20 0 0 0 440,260" stroke="#577590"/>
    <path d="M500,240 A20,20 0 0 0 520,260" stroke="#4cc9f0"/>
    <path d="M500,280 A20,20 0 0 0 480,260" stroke="#577590"/>
    <path d="M540,240 A20,20 0 0 1 520,260" stroke="#4cc9f0"/>
    <path d="M540,280 A20,20 0 0 1 560,260" stroke="#277da1"/>
    <path d="M580,240 A20,20 0 0 1 560,260" stroke="#277da1"/>
    <path d="M580,280 A20,20 0 0 1 600,260" stroke="#277da1"/>
    <path d="M620,240 A20,20 0 0 1 600,260" stroke="#277da1"/>
    <path d="M620,280 A20,20 0 0 1 640,260" stroke="#f9c74f"/>
    <path d="M20,280 A20,20 0 0 1 0,300" stroke="#f94144"/>
    <path d="M20,320 A20,20 0 0 1 40,300" stroke="#7209b7"/>
    <path d="M60,280 A20,20 0 0 1 40,300" stroke="#7209b7"/>
    <path d="M60,320 A20,20 0 0 1 80,300" stroke="#7209b7"/>
    <path d="M100,280 A20,20 0 0 1 80,300" stroke="#7209b7"/>
    <path d="M100,320 A20,20 0 0 1 120,300" stroke="#f94144"/>
    <path d="M140,280 A20,20 0 0 0 160,300" stroke="#f94144"/>
    <path d="M140,320 A20,20 0 0 0 120,300" stroke="#f94144"/>
    <path d="M180,280 A20,20 0 0 0 200,300" stroke="#577590"/>
    <path d="M180,320 A20,20 0 0 0 160,300" stroke="#f94144"/>
    <path d="M220,280 A20,20 0 0 0 240,300" stroke="#f3722c"/>
    <path d="M220,320 A20,20 0 0 0 200,300" stroke="#577590"/>
    <path d="M260,280 A20,20 0 0 1 240,300" stroke="#f3722c"/>
    <path d="M260,320 A20,20 0 0 1 280,300" stroke="#577590"/>
    <path d="M300,280 A20,20 0 0 1 280,300" stroke="#577590"/>
    <path d="M300,320 A20,20 0 0 1 320,300" stroke="#f8961e"/>
    <path d="M340,280 A20,20 0 0 1 320,300" stroke="#f8961e"/>
    <path d="M340,320 A20,20 0 0 1 360,300" stroke="#f8961e"/>
    <path d="M380,280 A20,20 0 0 1 360,300" stroke="#f8961e"/>
    <path d="M380,320 A20,20 0 0 1 400,300" stroke="#577590"/>
    <path d="M420,280 A20,20 0 0 1 400,300" stroke="#577590"/>
    <path d="M420,320 A20,20 0 0 1 440,300" stroke="#577590"/>
    <path d="M460,280 A20,20 0 0 0 480,300" stroke="#577590"/>
    <path d="M460,320 A20,20 0 0 0 440,300" stroke="#577590"/>
    <path d="M500,280 A20,20 0 0 1 480,300" stroke="#577590"/>
    <path d="M500,320 A20,20 0 0 1 520,300" stroke="#577590"/>
    <path d="M540,280 A20,20 0 0 0 560,300" stroke="#277da1"/>
    <path d="M540,320 A20,20 0 0 0 520,300" stroke="#577590"/>
    <path d="M580,280 A20,20 0 0 1 560,300" stroke="#277da1"/>
    <path d="M580,320 A20,20 0 0 1 600,300" stroke="#f9c74f"/>
    <path d="M620,280 A20,20 0 0 1 600,300" stroke="#f9c74f"/>
    <path d="M620,320 A20,20 0 0 1 640,300" stroke="#f9c74f"/>
    <path d="M20,320 A20,20 0 0 1 0,340" stroke="#7209b7"/>
    <path d="M20,360 A20,20 0 0 1 40,340" stroke="#7209b7"/>
    <path d="M60,320 A20,20 0 0 1 40,340" stroke="#7209b7"/>
    <path d="M60,360 A20,20 0 0 1 80,340" stroke="#f94144"/>
    <path d="M100,320 A20,20 0 0 1 80,340" stroke="#f94144"/>
    <path d="M100,360 A20,20 0 0 1 120,340" stroke="#f94144"/>
    <path d="M140,320 A20,20 0 0 0 160,340" stroke="#f94144"/>
    <path d="M140,360 A20,20 0 0 0 120,340" stroke="#f94144"/>
    <path d="M180,320 A20,20 0 0 0 200,340" stroke="#f94144"/>
    <path d="M180,360 A20,20 0 0 0 160,340" stroke="#f94144"/>
    <path d="M220,320 A20,20 0 0 0 240,340" stroke="#577590"/>
    <path d="M220,360 A20,20 0 0 0 200,340" stroke="#f94144"/>
    <path d="M260,320 A20,20 0 0 1 240,340" stroke="#577590"/>
    <path d="M260,360 A20,20 0 0 1 280,340" stroke="#90be6d"/>
    <path d="M300,320 A20,20 0 0 0 320,340" stroke="#f8961e"/>
    <path d="M300,360 A20,20 0 0 0 280,340" stroke="#90be6d"/>
    <path d="M340,320 A20,20 0 0 1 320,340" stroke="#f8961e"/>
    <path d="M340,360 A20,20 0 0 1 360,340" stroke="#43aa8b"/>
    <path d="M380,320 A20,20 0 0 0 400,340" stroke="#577590"/>
    <path d="M380,360 A20,20 0 0 0 360,340" stroke="#43aa8b"/>
    <path d="M420,320 A20,20 0 0 1 400,340" stroke="#577590"/>
    <path d="M420,360 A20,20 0 0 1 440,340" stroke="#4d908e"/>
    <path d="M460,320 A20,20 0 0 0 480,340" stroke="#577590"/>
    <path d="M460,360 A20,20 0 0 0 440,340" stroke="#4d908e"/>
    <path d="M500,320 A20,20 0 0 1 480,340" stroke="#577590"/>
    <path d="M500,360 A20,20 0 0 1 520,340" stroke="#577590"/>
    <path d="M540,320 A20,20 0 0 0 560,340" stroke="#577590"/>
    <path d="M540,360 A20,20 0 0 0 520,340" stroke="#577590"/>
    <path d="M580,320 A20,20 0 0 0 600,340" stroke="#f9c74f"/>
    <path d="M580,360 A20,20 0 0 0 560,340" stroke="#577590"/>
    <path d="M620,320 A20,20 0 0 1 600,340" stroke="#f9c74f"/>
    <path d="M620,360 A20,20 0 0 1 640,340" stroke="#577590"/>
    <path d="M20,360 A20,20 0 0 1 0,380" stroke="#7209b7"/>
    <path d="M20,400 A20,20 0 0 1 40,380" stroke="#f94144"/>
    <path d="M60,360 A20,20 0 0 0 80,380" stroke="#f94144"/>
    <path d="M60,400 A20,20 0 0 0 40,380" stroke="#f94144"/>
    <path d="M100,360 A20,20 0 0 1 80,380" stroke="#f94144"/>
    <path d="M100,400 A20,20 0 0 1 120,380" stroke="#f94144"/>
    <path d="M140,360 A20,20 0 0 0 160,380" stroke="#f94144"/>
    <path d="M140,400 A20,20 0 0 0 120,380" stroke="#f94144"/>
    <path d="M180,360 A20,20 0 0 0 200,380" stroke="#f94144"/>
    <path d="M180,400 A20,20 0 0 0 160,380" stroke="#f94144"/>
    <path d="M220,360 A20,20 0 0 1 200,380" stroke="#f94144"/>
    <path d="M220,400 A20,20 0 0 1 240,380" stroke="#43aa8b"/>
    <path d="M260,360 A20,20 0 0 0 280,380" stroke="#90be6d"/>
    <path d="M260,400 A20,20 0 0 0 240,380" stroke="#43aa8b"/>
    <path d="M300,360 A20,20 0 0 1 280,380" stroke="#90be6d"/>
    <path d="M300,400 A20,20 0 0 1 320,380" stroke="#43aa8b"/>
    <path d="M340,360 A20,20 0 0 1 320,380" stroke="#43aa8b"/>
    <path d="M340,400 A20,20 0 0 1 360,380" stroke="#277da1"/>
    <path d="M380,360 A20,20 0 0 0 400,380" stroke="#43aa8b"/>
    <path d="M380,400 A20,20 0 0 0 360,380" stroke="#277da1"/>
    <path d="M420,360 A20,20 0 0 0 440,380" stroke="#4d908e"/>
    <path d="M420,400 A20,20 0 0 0 400,380" stroke="#43aa8b"/>
    <path d="M460,360 A20,20 0 0 0 480,380" stroke="#4d908e"/>
    <path d="M460,400 A20,20 0 0 0 440,380" stroke="#4d908e"/>
    <path d="M500,360 A20,20 0 0 0 520,380" stroke="#577590"/>
    <path d="M500,400 A20,20 0 0 0 480,380" stroke="#4d908e"/>
    <path d="M540,360 A20,20 0 0 1 520,380" stroke="#577590"/>
    <path d="M540,400 A20,20 0 0 1 560,380" stroke="#b5179e"/>
    <path d="M580,360 A20,20 0 0 0 600,380" stroke="#577590"/>
    <path d="M580,400 A20,20 0 0 0 560,380" stroke="#b5179e"/>
    <path d="M620,360 A20,20 0 0 1 600,380" stroke="#577590"/>
    <path d="M620,400 A20,20 0 0 1 640,380" stroke="#7209b7"/>
    <path d="M20,400 A20,20 0 0 1 0,420" stroke="#f94144"/>
    <path d="M20,440 A20,20 0 0 1 40,420" stroke="#4cc9f0"/>
    <path d="M60,400 A20,20 0 0 0 80,420" stroke="#f94144"/>
    <path d="M60,440 A20,20 0 0 0 40,420" stroke="#4cc9f0"/>
    <path d="M100,400 A20,20 0 0 1 80,420" stroke="#f94144"/>
    <path d="M100,440 A20,20 0 0 1 120,420" stroke="#4cc9f0"/>
    <path d="M140,400 A20,20 0 0 0 160,420" stroke="#f94144"/>
    <path d="M140,440 A20,20 0 0 0 120,420" stroke="#4cc9f0"/>
    <path d="M180,400 A20,20 0 0 1 160,420" stroke="#f94144"/>
    <path d="M180,440 A20,20 0 0 1 200,420" stroke="#43aa8b"/>
    <path d="M220,400 A20,20 0 0 1 200,420" stroke="#43aa8b"/>
    <path d="M220,440 A20,20 0 0 1 240,420" stroke="#43aa8b"/>
    <path d="M260,400 A20,20 0 0 1 240,420" stroke="#43aa8b"/>
    <path d="M260,440 A20,20 0 0 1 280,420" stroke="#43aa8b"/>
    <path d="M300,400 A20,20 0 0 1 280,420" stroke="#43aa8b"/>
    <path d="M300,440 A20,20 0 0 1 320,420" stroke="#277da1"/>
    <path d="M340,400 A20,20 0 0 1 320,420" stroke="#277da1"/>
    <path d="M340,440 A20,20 0 0 1 360,420" stroke="#277da1"/>
    <path d="M380,400 A20,20 0 0 1 360,420" stroke="#277da1"/>
    <path d="M380,440 A20,20 0 0 1 400,420" stroke="#43aa8b"/>
    <path d="M420,400 A20,20 0 0 1 400,420" stroke="#43aa8b"/>
    <path d="M420,440 A20,20 0 0 1 440,420" stroke="#4d908e"/>
    <path d="M460,400 A20,20 0 0 1 440,420" stroke="#4d908e"/>
    <path d="M460,440 A20,20 0 0 1 480,420" stroke="#4d908e"/>
    <path d="M500,400 A20,20 0 0 1 480,420" stroke="#4d908e"/>
    <path d="M500,440 A20,20 0 0 1 520,420" stroke="#f94144"/>
    <path d="M540,400 A20,20 0 0 0 560,420" stroke="#b5179e"/>
    <path d="M540,440 A20,20 0 0 0 520,420" stroke="#f94144"/>
    <path d="M580,400 A20,20 0 0 1 560,420" stroke="#b5179e"/>
    <path d="M580,440 A20,20 0 0 1 600,420" stroke="#f94144"/>
    <path d="M620,400 A20,20 0 0 0 640,420" stroke="#7209b7"/>
    <path d="M620,440 A20,20 0 0 0 600,420" stroke="#f94144"/>
    <path d="M20,440 A20,20 0 0 0 40,460" stroke="#4cc9f0"/>
    <path d="M20,480 A20,20 0 0 0 0,460" stroke="#4cc9f0"/>
    <path d="M60,440 A20,20 0 0 0 80,460" stroke="#4cc9f0"/>
    <path d="M60,480 A20,20 0 0 0 40,460" stroke="#4cc9f0"/>
    <path d="M100,440 A20,20 0 0 1 80,460" stroke="#4cc9f0"/>
    <path d="M100,480 A20,20 0 0 1 120,460" stroke="#4cc9f0"/>
    <path d="M140,440 A20,20 0 0 1 120,460" stroke="#4cc9f0"/>
    <path d="M140,480 A20,20 0 0 1 160,460" stroke="#f3722c"/>
    <path d="M180,440 A20,20 0 0 0 200,460" stroke="#43aa8b"/>
    <path d="M180,480 A20,20 0 0 0 160,460" stroke="#f3722c"/>
    <path d="M220,440 A20,20 0 0 0 240,460" stroke="#43aa8b"/>
    <path d="M220,480 A20,20 0 0 0 200,460" stroke="#43aa8b"/>
    <path d="M260,440 A20,20 0 0 1 240,460" stroke="#43aa8b"/>
    <path d="M260,480 A20,20 0 0 1 280,460" stroke="#277da1"/>
    <path d="M300,440 A20,20 0 0 1 280,460" stroke="#277da1"/>
    <path d="M300,480 A20,20 0 0 1 320,460" stroke="#277da1"/>
    <path d="M340,440 A20,20 0 0 1 320,460" stroke="#277da1"/>
    <path d="M340,480 A20,20 0 0 1 360,460" stroke="#43aa8b"/>
    <path d="M380,440 A20,20 0 0 0 400,460" stroke="#43aa8b"/>
    <path d="M380,480 A20,20 0 0 0 360,460" stroke="#43aa8b"/>
    <path d="M420,440 A20,20 0 0 0 440,460" stroke="#4d908e"/>
    <path d="M420,480 A20,20 0 0 0 400,460" stroke="#43aa8b"/>
    <path d="M460,440 A20,20 0 0 1 440,460" stroke="#4d908e"/>
    <path d="M460,480 A20,20 0 0 1 480,460" stroke="#f94144"/>
    <path d="M500,440 A20,20 0 0 0 520,460" stroke="#f94144"/>
    <path d="M500,480 A20,20 0 0 0 480,460" stroke="#f94144"/>
    <path d="M540,440 A20,20 0 0 0 560,460" stroke="#f94144"/>
    <path d="M540,480 A20,20 0 0 0 520,460" stroke="#f94144"/>
    <path d="M580,440 A20,20 0 0 0 600,460" stroke="#f94144"/>
    <path d="M580,480 A20,20 0 0 0 560,460" stroke="#f94144"/>
    <path d="M620,440 A20,20 0 0 0 640,460" stroke="#f94144"/>
    <path d="M620,480 A20,20 0 0 0 600,460" stroke="#f94144"/>
    <path d="M20,480 A20,20 0 0 0 40,500" stroke="#4cc9f0"/>
    <path d="M20,520 A20,20 0 0 0 0,500" stroke="#f8961e"/>
    <path d="M60,480 A20,20 0 0 1 40,500" stroke="#4cc9f0"/>
    <path d="M60,520 A20,20 0 0 1 80,500" stroke="#f9c74f"/>
    <path d="M100,480 A20,20 0 0 0 120,500" stroke="#4cc9f0"/>
    <path d="M100,520 A20,20 0 0 0 80,500" stroke="#f9c74f"/>
    <path d="M140,480 A20,20 0 0 0 160,500" stroke="#f3722c"/>
    <path d="M140,520 A20,20 0 0 0 120,500" stroke="#4cc9f0"/>
    <path d="M180,480 A20,20 0 0 1 160,500" stroke="#f3722c"/>
    <path d="M180,520 A20,20 0 0 1 200,500" stroke="#90be6d"/>
    <path d="M220,480 A20,20 0 0 0 240,500" stroke="#43aa8b"/>
    <path d="M220,520 A20,20 0 0 0 200,500" stroke="#90be6d"/>
    <path d="M260,480 A20,20 0 0 0 280,500" stroke="#277da1"/>
    <path d="M260,520 A20,20 0 0 0 240,500" stroke="#43aa8b"/>
    <path d="M300,480 A20,20 0 0 1 280,500" stroke="#277da1"/>
    <path d="M300,520 A20,20 0 0 1 320,500" stroke="#43aa8b"/>
    <path d="M340,480 A20,20 0 0 0 360,500" stroke="#43aa8b"/>
    <path d="M340,520 A20,20 0 0 0 320,500" stroke="#43aa8b"/>
    <path d="M380,480 A20,20 0 0 0 400,500" stroke="#43aa8b"/>
    <path d="M380,520 A20,20 0 0 0 360,500" stroke="#43aa8b"/>
    <path d="M420,480 A20,20 0 0 1 400,500" stroke="#43aa8b"/>
    <path d="M420,520 A20,20 0 0 1 440,500" stroke="#f94144"/>
    <path d="M460,480 A20,20 0 0 0 480,500" stroke="#f94144"/>
    <path d="M460,520 A20,20 0 0 0 440,500" stroke="#f94144"/>
    <path d="M500,480 A20,20 0 0 0 520,500" stroke="#f94144"/>
    <path d="M500,520 A20,20 0 0 0 480,500" stroke="#f94144"/>
    <path d="M540,480 A20,20 0 0 1 520,500" stroke="#f94144"/>
    <path d="M540,520 A20,20 0 0 1 560,500" stroke="#43aa8b"/>
    <path d="M580,480 A20,20 0 0 0 600,500" stroke="#f94144"/>
    <path d="M580,520 A20,20 0 0 0 560,500" stroke="#43aa8b"/>
    <path d="M620,480 A20,20 0 0 1 600,500" stroke="#f94144"/>
    <path d="M620,520 A20,20 0 0 1 640,500" stroke="#43aa8b"/>
    <path d="M20,520 A20,20 0 0 1 0,540" stroke="#f8961e"/>
    <path d="M20,560 A20,20 0 0 1 40,540" stroke="#4d908e"/>
    <path d="M60,520 A20,20 0 0 0 80,540" stroke="#f9c74f"/>
    <path d="M60,560 A20,20 0 0 0 40,540" stroke="#4d908e"/>
    <path d="M100,520 A20,20 0 0 1 80,540" stroke="#f9c74f"/>
    <path d="M100,560 A20,20 0 0 1 120,540" stroke="#4cc9f0"/>
    <path d="M140,520 A20,20 0 0 0 160,540" stroke="#4cc9f0"/>
    <path d="M140,560 A20,20 0 0 0 120,540" stroke="#4cc9f0"/>
    <path d="M180,520 A20,20 0 0 0 200,540" stroke="#90be6d"/>
    <path d="M180,560 A20,20 0 0 0 160,540" stroke="#4cc9f0"/>
    <path d="M220,520 A20,20 0 0 0 240,540" stroke="#90be6d"/>
    <path d="M220,560 A20,20 0 0 0 200,540" stroke="#90be6d"/>
    <path d="M260,520 A20,20 0 0 0 280,540" stroke="#43aa8b"/>
    <path d="M260,560 A20,20 0 0 0 240,540" stroke="#90be6d"/>
    <path d="M300,520 A20,20 0 0 0 320,540" stroke="#43aa8b"/>
    <path d="M300,560 A20,20 0 0 0 280,540" stroke="#43aa8b"/>
    <path d="M340,520 A20,20 0 0 0 360,540" stroke="#43aa8b"/>
    <path d="M340,560 A20,20 0 0 0 320,540" stroke="#43aa8b"/>
    <path d="M380,520 A20,20 0 0 1 360,540" stroke="#43aa8b"/>
    <path d="M380,560 A20,20 0 0 1 400,540" stroke="#f94144"/>
    <path d="M420,520 A20,20 0 0 0 440,540" stroke="#f94144"/>
    <path d="M420,560 A20,20 0 0 0 400,540" stroke="#f94144"/>
    <path d="M460,520 A20,20 0 0 0 480,540" stroke="#f94144"/>
    <path d="M460,560 A20,20 0 0 0 440,540" stroke="#f94144"/>
    <path d="M500,520 A20,20 0 0 1 480,540" stroke="#f94144"/>
    <path d="M500,560 A20,20 0 0 1 520,540" stroke="#43aa8b"/>
    <path d="M540,520 A20,20 0 0 1 520,540" stroke="#43aa8b"/>
    <path d="M540,560 A20,20 0 0 1 560,540" stroke="#43aa8b"/>
    <path d="M580,520 A20,20 0 0 0 600,540" stroke="#43aa8b"/>
    <path d="M580,560 A20,20 0 0 0 560,540" stroke="#43aa8b"/>
    <path d="M620,520 A20,20 0 0 1 600,540" stroke="#43aa8b"/>
    <path d="M620,560 A20,20 0 0 1 640,540" stroke="#577590"/>
    <path d="M20,560 A20,20 0 0 0 40,580" stroke="#4d908e"/>
    <path d="M20,600 A20,20 0 0 0 0,580" stroke="#277da1"/>
    <path d="M60,560 A20,20 0 0 1 40,580" stroke="#4d908e"/>
    <path d="M60,600 A20,20 0 0 1 80,580" stroke="#4cc9f0"/>
    <path d="M100,560 A20,20 0 0 1 80,580" stroke="#4cc9f0"/>
    <path d="M100,600 A20,20 0 0 1 120,580" stroke="#b5179e"/>
    <path d="M140,560 A20,20 0 0 0 160,580" stroke="#4cc9f0"/>
    <path d="M140,600 A20,20 0 0 0 120,580" stroke="#b5179e"/>
    <path d="M180,560 A20,20 0 0 1 160,580" stroke="#4cc9f0"/>
    <path d="M180,600 A20,20 0 0 1 200,580" stroke="#90be6d"/>
    <path d="M220,560 A20,20 0 0 1 200,580" stroke="#90be6d"/>
    <path d="M220,600 A20,20 0 0 1 240,580" stroke="#90be6d"/>
    <path d="M260,560 A20,20 0 0 0 280,580" stroke="#90be6d"/>
    <path d="M260,600 A20,20 0 0 0 240,580" stroke="#90be6d"/>
    <path d="M300,560 A20,20 0 0 0 320,580" stroke="#43aa8b"/>
    <path d="M300,600 A20,20 0 0 0 280,580" stroke="#90be6d"/>
    <path d="M340,560 A20,20 0 0 0 360,580" stroke="#43aa8b"/>
    <path d="M340,600 A20,20 0 0 0 320,580" stroke="#43aa8b"/>
    <path d="M380,560 A20,20 0 0 0 400,580" stroke="#f94144"/>
    <path d="M380,600 A20,20 0 0 0 360,580" stroke="#43aa8b"/>
    <path d="M420,560 A20,20 0 0 0 440,580" stroke="#f94144"/>
    <path d="M420,600 A20,20 0 0 0 400,580" stroke="#f94144"/>
    <path d="M460,560 A20,20 0 0 0 480,580" stroke="#f94144"/>
    <path d="M460,600 A20,20 0 0 0 440,580" stroke="#f94144"/>
    <path d="M500,560 A20,20 0 0 0 520,580" stroke="#43aa8b"/>
    <path d="M500,600 A20,20 0 0 0 480,580" stroke="#f94144"/>
    <path d="M540,560 A20,20 0 0 1 520,580" stroke="#43aa8b"/>
    <path d="M540,600 A20,20 0 0 1 560,580" stroke="#7209b7"/>
    <path d="M580,560 A20,20 0 0 0 600,580" stroke="#43aa8b"/>
    <path d="M580,600 A20,20 0 0 0 560,580" stroke="#7209b7"/>
    <path d="M620,560 A20,20 0 0 0 640,580" stroke="#577590"/>
    <path d="M620,600 A20,20 0 0 0 600,580" stroke="#43aa8b"/>
    <path d="M20,600 A20,20 0 0 1 0,620" stroke="#277da1"/>
    <path d="M20,640 A20,20 0 0 1 40,620" stroke="#4cc9f0"/>
    <path d="M60,600 A20,20 0 0 1 40,620" stroke="#4cc9f0"/>
    <path d="M60,640 A20,20 0 0 1 80,620" stroke="#4cc9f0"/>
    <path d="M100,600 A20,20 0 0 0 120,620" stroke="#b5179e"/>
    <path d="M100,640 A20,20 0 0 0 80,620" stroke="#4cc9f0"/>
    <path d="M140,600 A20,20 0 0 1 120,620" stroke="#b5179e"/>
    <path d="M140,640 A20,20 0 0 1 160,620" stroke="#f94144"/>
    <path d="M180,600 A20,20 0 0 0 200,620" stroke="#90be6d"/>
    <path d="M180,640 A20,20 0 0 0 160,620" stroke="#f94144"/>
    <path d="M220,600 A20,20 0 0 1 200,620" stroke="#90be6d"/>
    <path d="M220,640 A20,20 0 0 1 240,620" stroke="#90be6d"/>
    <path d="M260,600 A20,20 0 0 1 240,620" stroke="#90be6d"/>
    <path d="M260,640 A20,20 0 0 1 280,620" stroke="#90be6d"/>
    <path d="M300,600 A20,20 0 0 1 280,620" stroke="#90be6d"/>
    <path d="M300,640 A20,20 0 0 1 320,620" stroke="#43aa8b"/>
    <path d="M340,600 A20,20 0 0 1 320,620" stroke="#43aa8b"/>
    <path d="M340,640 A20,20 0 0 1 360,620" stroke="#43aa8b"/>
    <path d="M380,600 A20,20 0 0 1 360,620" stroke="#43aa8b"/>
    <path d="M380,640 A20,20 0 0 1 400,620" stroke="#f94144"/>
    <path d="M420,600 A20,20 0 0 1 400,620" stroke="#f94144"/>
    <path d="M420,640 A20,20 0 0 1 440,620" stroke="#f3722c"/>
    <path d="M460,600 A20,20 0 0 0 480,620" stroke="#f94144"/>
    <path d="M460,640 A20,20 0 0 0 440,620" stroke="#f3722c"/>
    <path d="M500,600 A20,20 0 0 1 480,620" stroke="#f94144"/>
    <path d="M500,640 A20,20 0 0 1 520,620" stroke="#7209b7"/>
    <path d="M540,600 A20,20 0 0 1 520,620" stroke="#7209b7"/>
    <path d="M540,640 A20,20 0 0 1 560,620" stroke="#f8961e"/>
    <path d="M580,600 A20,20 0 0 0 600,620" stroke="#7209b7"/>
    <path d="M580,640 A20,20 0 0 0 560,620" stroke="#f8961e"/>
    <path d="M620,600 A20,20 0 0 0 640,620" stroke="#43aa8b"/>
    <path d="M620,640 A20,20 0 0 0 600,620" stroke="#7209b7"/>
  </g>
</svg>
